<?xml version="1.0" standalone="no"?>
<!DOCTYPE svg PUBLIC "-//W3C//DTD SVG 1.1//EN" "http://www.w3.org/Graphics/SVG/1.1/DTD/svg11.dtd" >
<svg xmlns="http://www.w3.org/2000/svg" xmlns:xlink="http://www.w3.org/1999/xlink" version="1.1">
<metadata>
Created by FontForge 20161013 at Thu Oct  4 20:38:26 1928
 By ,,,
TrueType font: Copyright (c) 1991, 1994 ParaGraph. Technical realization by TeamAXis Corp. Hinted with AXisType ToolKit: Copyright (c) 1992, 1994 by Dmitry Komissarov. Benguiat Gothic is a registered trade mark of International Typeface Corporation.
</metadata>
<defs>
<font id="BenguiatGothicCTT" horiz-adv-x="502" >
  <font-face 
    font-family="BenguiatGothicCTT"
    font-weight="400"
    font-stretch="normal"
    units-per-em="1000"
    panose-1="0 0 0 0 0 0 0 0 0 0"
    ascent="800"
    descent="-200"
    x-height="511"
    cap-height="700"
    bbox="-170 -201 978 897"
    underline-thickness="50"
    underline-position="-175"
    unicode-range="U+0020-2219"
  />
<missing-glyph horiz-adv-x="897" 
d="M56 0v897h785v-897h-785zM785 56v785h-673v-785h673z" />
    <glyph glyph-name=".notdef" horiz-adv-x="897" 
d="M56 0v897h785v-897h-785zM785 56v785h-673v-785h673z" />
    <glyph glyph-name=".null" horiz-adv-x="0" 
 />
    <glyph glyph-name="nonmarkingreturn" horiz-adv-x="233" 
 />
    <glyph glyph-name="space" unicode=" " horiz-adv-x="233" 
 />
    <glyph glyph-name="exclam" unicode="!" horiz-adv-x="282" 
d="M177 656l-9 -449q0 -18 -3 -26q-6 -16 -23 -16t-22.5 13t-5.5 29l-9 449q0 18 9.5 31t26.5 13q12 0 21 -7q15 -11 15 -37zM182 49q0 -18 -6 -31q-11 -22 -35 -22q-25 0 -35 21q-6 13 -6 32q0 25 10 38.5t31 13.5q15 0 25 -8q16 -13 16 -44z" />
    <glyph glyph-name="quotedbl" unicode="&#x22;" horiz-adv-x="283" 
d="M253 647l-16 -172q-2 -16 -5 -23q-8 -17 -25 -17q-10 0 -16 6q-11 11 -11 38v172q0 18 6 30q10 19 33 19q24 0 31 -21q3 -9 3 -32zM103 479q0 -27 -8.5 -35.5t-18.5 -8.5q-16 0 -24 17q-4 9 -6 23l-16 172q0 22 3 31q7 22 31 22q29 0 36 -26q3 -11 3 -23v-172z" />
    <glyph glyph-name="numbersign" unicode="#" horiz-adv-x="716" 
d="M676 517q0 -14 -9.5 -23.5t-22.5 -9.5h-126l-31 -162h98q16 0 24 -11t8 -21q0 -12 -8.5 -22.5t-23.5 -10.5h-111l-24 -125q-3 -16 -14.5 -21t-18.5 -5q-30 0 -30 27q0 6 1 10l22 114h-162l-24 -125q-3 -16 -14.5 -21t-18.5 -5q-22 0 -26.5 12.5t-2.5 24.5l22 114h-112
q-14 0 -23 10t-9 23q0 9 3 15q8 17 29 17h125l31 162h-112q-16 0 -24.5 9.5t-8.5 23.5q0 12 7.5 22t25.5 10h125l24 124q5 27 32 27q31 0 31 -28q0 -6 -1 -9l-22 -114h162l24 124q3 12 11 19.5t21 7.5q17 0 25 -11t5 -26l-22 -114h113q11 0 21.5 -8.5t10.5 -23.5zM454 484
h-162l-31 -162h162z" />
    <glyph glyph-name="dollar" unicode="$" horiz-adv-x="461" 
d="M431 315q0 -80 -53.5 -138.5t-132.5 -58.5v-68q0 -18 -8.5 -24.5t-17.5 -6.5q-14 0 -19 9.5t-5 21.5v68h-133q-15 0 -23.5 8t-8.5 20q0 28 32 28h133v249q-80 12 -110 28q-45 24 -45 79q0 39 22 67q30 37 91 37h42v63q0 17 4 25.5t21 8.5q15 0 20 -9.5t5 -24.5v-63h97
q15 0 23.5 -8t8.5 -20q0 -28 -32 -28h-174q-28 0 -40 -5q-24 -10 -24 -39q0 -28 26 -38q9 -3 65 -12l50 -8q92 -15 133 -44q53 -38 53 -117zM367 309q0 48 -29.5 72t-92.5 33v-240q50 0 86 39t36 96z" />
    <glyph glyph-name="percent" unicode="%" horiz-adv-x="682" 
d="M326 538q0 -72 -40.5 -117.5t-105.5 -45.5q-60 0 -100 49t-40 125q0 66 41.5 108.5t102.5 42.5q57 0 96 -39q46 -45 46 -123zM586 643l-452 -630q-10 -14 -23 -14q-24 0 -24 23q0 12 12 29l452 630q10 14 23 14q24 0 24 -23q0 -12 -12 -29zM642 156q0 -72 -40.5 -117.5
t-105.5 -45.5q-60 0 -100 49t-40 125q0 66 41.5 108.5t102.5 42.5q57 0 96 -39q46 -45 46 -123zM272 538q0 36 -15 62q-23 39 -74 39q-48 0 -72 -37q-17 -26 -17 -60q0 -35 14 -62q22 -44 71 -44q44 0 68.5 30.5t24.5 71.5zM588 156q0 36 -15 62q-23 39 -74 39
q-41 0 -64.5 -26.5t-23.5 -70.5q0 -43 18 -71q22 -35 66 -35t68.5 30.5t24.5 71.5z" />
    <glyph glyph-name="ampersand" unicode="&#x26;" horiz-adv-x="638" 
d="M638 19q0 -12 -9 -18t-20 -6q-15 0 -25 8l-117 99q-47 -66 -113 -92q-43 -17 -94 -17q-109 0 -173 68q-57 61 -57 148q0 59 31 110q25 41 69 76q-24 35 -24 77q0 56 35 97q41 48 113 48q80 0 123 -51q36 -43 36 -104q0 -44 -29 -86t-80 -69l148 -123q38 56 38 138
q0 30 -4.5 52t-10 45.5t-5.5 31.5q0 14 7 20t17 6q12 0 19 -5.5t11 -13.5q9 -18 18.5 -60t9.5 -80q0 -54 -17 -101q-13 -35 -37 -70l130 -110q10 -8 10 -18zM349 470q0 45 -26 68t-67 23q-32 0 -59 -22.5t-27 -60.5q0 -30 16 -58q23 -40 76 -78q51 31 73 73q14 27 14 55z
M424 137l-258 216q-32 -26 -50 -58q-22 -39 -22 -86q0 -71 47.5 -115.5t117.5 -44.5q52 0 99 29q36 22 66 59z" />
    <glyph glyph-name="quotesingle" unicode="'" horiz-adv-x="134" 
d="M104 649l-9 -173q0 -16 -4 -25q-7 -16 -24 -16q-16 0 -22 13t-6 28l-9 173q0 22 3 30q8 21 34 21q25 0 33 -20q4 -10 4 -31z" />
    <glyph glyph-name="parenleft" unicode="(" horiz-adv-x="251" 
d="M231 -167q0 -11 -6 -16t-15 -5q-13 0 -21 5.5t-14 12.5q-65 67 -107 174q-48 121 -48 252q0 133 47 252q41 105 108 174q16 18 35 18q12 0 16.5 -6t4.5 -15q0 -7 -33 -56q-20 -30 -44 -78q-40 -79 -56 -167q-11 -59 -11 -122q0 -62 11 -122q16 -87 56 -167q20 -40 44 -76
q33 -49 33 -58z" />
    <glyph glyph-name="parenright" unicode=")" horiz-adv-x="251" 
d="M231 256q0 -133 -47 -252q-41 -105 -108 -174q-16 -18 -35 -18q-12 0 -16.5 6t-4.5 15q0 7 33 56q20 30 44 78q40 79 56 167q11 59 11 122q0 62 -11 122q-16 87 -56 167q-20 40 -44 76q-33 49 -33 58q0 11 6 16t15 5q13 0 23 -7q6 -4 12 -11q65 -67 107 -174
q48 -121 48 -252z" />
    <glyph glyph-name="asterisk" unicode="*" horiz-adv-x="346" 
d="M306 573q0 -21 -23 -27t-67 -6h-26q46 -32 63 -51q14 -16 14 -28q0 -16 -6.5 -25t-20.5 -9q-32 0 -51 48q-7 18 -16 52q-16 -54 -25 -70q-16 -30 -44 -30q-13 0 -20 10t-7 24q0 15 21 35t58 44h-29q-53 0 -70 8t-17 25q0 16 9 27t28 11q13 0 44 -21q15 -10 41 -30
q-10 26 -16 51.5t-6 44.5q0 14 10.5 21t22.5 7q10 0 20.5 -6.5t10.5 -21.5q0 -29 -21 -96q36 27 55.5 37.5t28.5 10.5q39 0 39 -35z" />
    <glyph glyph-name="plus" unicode="+" horiz-adv-x="476" 
d="M456 370q0 -16 -14 -23q-9 -4 -17 -4h-160v-160q0 -13 -7 -22t-20 -9q-17 0 -22 11.5t-5 22.5v157h-160q-13 0 -22 7t-9 20q0 17 11.5 22t22.5 5h157v157q0 12 3 19q7 15 24 15q16 0 23 -14q4 -9 4 -17v-160h157q12 0 19 -3q15 -7 15 -24z" />
    <glyph glyph-name="comma" unicode="," horiz-adv-x="204" 
d="M164 100q0 -6 -6 -22l-78 -181l-5 -10q-7 -9 -21 -9q-24 0 -24 27q0 6 4 18l66 178q6 15 14.5 21.5t19.5 6.5q14 0 22 -9t8 -20z" />
    <glyph glyph-name="hyphen" unicode="-" horiz-adv-x="378" 
d="M318 324q0 -9 -5 -16q-9 -13 -30 -13h-188q-16 0 -25.5 7.5t-9.5 21.5q0 9 5 16q9 13 30 13h188q16 0 25.5 -7.5t9.5 -21.5z" />
    <glyph glyph-name="period" unicode="." horiz-adv-x="162" 
d="M122 49q0 -18 -6 -31q-11 -22 -35 -22q-25 0 -35 21q-6 13 -6 32q0 25 10 38.5t31 13.5q15 0 25 -8q16 -13 16 -44z" />
    <glyph glyph-name="slash" unicode="/" horiz-adv-x="497" 
d="M454 672l-350 -819q-5 -10 -12.5 -16t-20.5 -6q-31 0 -31 30q0 7 3 15l350 819q5 10 12.5 16t20.5 6q31 0 31 -30q0 -7 -3 -15z" />
    <glyph glyph-name="zero" unicode="0" horiz-adv-x="606" 
d="M576 351q0 -176 -86 -273q-75 -85 -187 -85t-187 84q-86 97 -86 274q0 160 73 258t200 98t200 -97.5t73 -258.5zM506 351q0 116 -38 189q-51 99 -163 99q-104 0 -157 -84q-48 -76 -48 -204q0 -156 70 -231q55 -59 135 -59q79 0 132 58q69 76 69 232z" />
    <glyph glyph-name="one" unicode="1" horiz-adv-x="385" 
d="M365 27q0 -17 -11.5 -22t-22.5 -5h-270q-13 0 -22 7t-9 20q0 17 11.5 22t22.5 5h105v559l-62 -11q-10 -2 -18.5 -3t-20.5 -1q-13 0 -23 5t-10 21q0 14 9 19.5t23 7.5l30 5q13 2 25.5 6t30.5 13l24 12q14 6 24 6q20 0 26 -10.5t6 -30.5v-598h101q13 0 22 -7t9 -20z" />
    <glyph glyph-name="two" unicode="2" horiz-adv-x="527" 
d="M497 27q0 -17 -11.5 -22t-22.5 -5h-383q-33 0 -41.5 14.5t-8.5 46.5q0 103 47 164q34 44 122 94l103 59q57 33 78 73q17 33 17 82q0 71 -53 97q-32 16 -88 16h-174q-13 0 -22 7t-9 20q0 17 11.5 22t22.5 5h176q82 0 126 -24q74 -40 74 -148q0 -83 -50 -140
q-33 -38 -104 -77q-96 -54 -112 -64q-54 -36 -78 -75q-29 -47 -29 -118h378q13 0 22 -7t9 -20z" />
    <glyph glyph-name="three" unicode="3" horiz-adv-x="530" 
d="M500 244q0 -91 -50 -155q-69 -89 -212 -89h-187q-13 0 -22 7t-9 20q0 17 11.5 22t22.5 5h184q86 0 142 51t56 130q0 86 -54 146q-62 68 -169 68l-81 -3q-15 0 -20 2q-14 5 -14 20q0 12 8 22q5 6 17 15l203 141h-266q-13 0 -22 7t-9 20q0 17 11.5 22t22.5 5h328
q18 0 26 -12q5 -8 5 -20q0 -15 -6 -25t-30 -26l-169 -114q132 0 212 -83q71 -73 71 -176z" />
    <glyph glyph-name="four" unicode="4" horiz-adv-x="528" 
d="M528 192q0 -17 -11.5 -22t-22.5 -5h-89v-128q0 -17 -9 -27t-24 -10q-14 0 -23.5 9.5t-9.5 27.5v128h-259h-16q-30 0 -39.5 12.5t-9.5 40.5q0 100 62 213t167 202q28 24 54 40q44 27 73 27q20 0 27 -13.5t7 -39.5v-428h92q13 0 22 -7t9 -20zM339 219v410
q-111 -73 -182 -183t-83 -227h265z" />
    <glyph glyph-name="five" unicode="5" horiz-adv-x="562" 
d="M532 247q0 -123 -82 -187q-77 -60 -207 -60h-182q-13 0 -22 7t-9 20q0 17 11.5 22t22.5 5h179q120 0 178 63q47 51 47 127q0 93 -68.5 153t-184.5 60h-117q-13 0 -20.5 6.5t-7.5 20.5l1 22l19 167q2 11 5 15q8 12 25 12h308q13 0 22 -7t9 -20q0 -17 -11.5 -22t-22.5 -5
h-279l-14 -135h49q67 0 118.5 -7.5t96.5 -31.5q64 -34 100 -95.5t36 -129.5z" />
    <glyph glyph-name="six" unicode="6" horiz-adv-x="563" 
d="M533 231q0 -98 -72 -168t-174 -70q-121 0 -189 95t-68 253q0 157 57 246q44 69 120 96q48 17 105 17h158q13 0 22 -7t9 -20q0 -17 -11.5 -22t-22.5 -5h-155q-100 0 -158 -73q-65 -82 -65 -206q30 57 82.5 89t114.5 32q118 0 186 -79q61 -71 61 -178zM469 238
q0 78 -41 132q-47 62 -131 62q-82 0 -136 -59t-54 -141q0 -79 53 -131t129 -52q61 0 113 41q67 53 67 148z" />
    <glyph glyph-name="seven" unicode="7" horiz-adv-x="421" 
d="M411 629q0 -81 -39 -162q-19 -39 -72 -115q-45 -64 -63 -94q-33 -54 -49 -98q-20 -56 -20 -110v-22q0 -13 -7.5 -20.5t-24.5 -7.5q-13 0 -19 4q-12 8 -12 29v30.5t1 21.5q8 80 43 149q21 41 76 117q75 103 99.5 162.5t24.5 132.5h-308q-13 0 -22 7t-9 20q0 17 11.5 22
t22.5 5h313q27 0 36 -7q18 -15 18 -64z" />
    <glyph glyph-name="eight" unicode="8" horiz-adv-x="544" 
d="M514 193q0 -87 -70.5 -143.5t-179.5 -56.5q-106 0 -173 63q-61 58 -61 137q0 67 38 119.5t107 74.5q-64 21 -93 68q-20 33 -20 73q0 74 53 124q58 55 157 55q101 0 158 -55q52 -50 52 -124q0 -40 -20 -73q-28 -47 -92 -68q67 -22 105.5 -72.5t38.5 -121.5zM418 529
q0 52 -36 85q-40 37 -110 37q-69 0 -107.5 -35.5t-38.5 -86.5q0 -45 32 -78q40 -42 114 -42t114 41q32 33 32 79zM450 196q0 62 -44 107q-50 52 -134 52q-71 0 -124.5 -43.5t-53.5 -115.5q0 -59 43 -100q50 -47 138 -47q81 0 130 46q45 42 45 101z" />
    <glyph glyph-name="nine" unicode="9" horiz-adv-x="563" 
d="M533 359q0 -157 -57 -246q-44 -69 -120 -96q-48 -17 -105 -17h-158q-13 0 -22 7t-9 20q0 17 11.5 22t22.5 5h155q100 0 158 73q65 82 65 206q-30 -57 -82.5 -89t-114.5 -32q-106 0 -175 68q-72 71 -72 189q0 98 72 168t174 70q121 0 189 -95t68 -253zM456 468
q0 79 -53 131t-129 52q-61 0 -113 -41q-67 -53 -67 -148q0 -78 41 -132q47 -62 131 -62q82 0 136 59t54 141z" />
    <glyph glyph-name="colon" unicode=":" horiz-adv-x="162" 
d="M122 460q0 -18 -6 -31q-11 -22 -35 -22q-25 0 -35 21q-6 13 -6 32q0 25 10 38.5t31 13.5q15 0 25 -8q16 -13 16 -44zM122 49q0 -18 -6 -31q-11 -22 -35 -22q-25 0 -35 21q-6 13 -6 32q0 25 10 38.5t31 13.5q15 0 25 -8q16 -13 16 -44z" />
    <glyph glyph-name="semicolon" unicode=";" horiz-adv-x="206" 
d="M166 460q0 -18 -6 -31q-11 -22 -35 -22q-25 0 -35 21q-6 13 -6 32q0 25 10 38.5t31 13.5q15 0 25 -8q16 -13 16 -44zM164 100q0 -6 -6 -22l-78 -181l-5 -10q-7 -9 -21 -9q-24 0 -24 27q0 6 4 18l66 178q6 15 14.5 21.5t19.5 6.5q14 0 22 -9t8 -20z" />
    <glyph glyph-name="less" unicode="&#x3c;" horiz-adv-x="476" 
d="M418 154q0 -15 -10.5 -22.5t-24.5 -7.5q-8 0 -16 6l-289 202q-9 7 -13 12q-7 9 -7 21t6 20t14 13l289 202q8 6 16 6q13 0 24 -7.5t11 -22.5q0 -13 -3 -19t-11 -11l-261 -181l261 -181q5 -4 9.5 -11.5t4.5 -18.5z" />
    <glyph glyph-name="equal" unicode="=" horiz-adv-x="476" 
d="M456 405q0 -16 -14 -23q-9 -4 -17 -4h-374q-13 0 -22 7t-9 20q0 17 11.5 22t22.5 5h368q12 0 19 -3q15 -7 15 -24zM456 280q0 -16 -14 -23q-9 -4 -17 -4h-374q-13 0 -22 7t-9 20q0 17 11.5 22t22.5 5h368q12 0 19 -3q15 -7 15 -24z" />
    <glyph glyph-name="greater" unicode="&#x3e;" horiz-adv-x="476" 
d="M418 365q0 -12 -5.5 -19t-14.5 -14l-289 -202q-8 -6 -16 -6q-13 0 -24 7.5t-11 22.5q0 13 3 19t11 11l261 181l-261 181q-5 4 -9.5 11.5t-4.5 18.5q0 15 10.5 22.5t24.5 7.5q8 0 16 -6l289 -202q9 -6 14.5 -13t5.5 -20z" />
    <glyph glyph-name="question" unicode="?" horiz-adv-x="514" 
d="M474 520q0 -71 -49 -124q-30 -32 -105 -78q-58 -35 -76 -67q-12 -21 -12 -63q0 -21 -7 -30.5t-25 -9.5q-20 0 -25 17t-5 49q0 59 35 97q19 21 81 60q54 34 78 60q40 43 40 96q0 46 -23 76q-30 39 -90 39h-216q-16 0 -25.5 7.5t-9.5 21.5q0 9 5 16q9 13 30 13h228
q93 0 137 -62q34 -48 34 -118zM240 49q0 -18 -6 -31q-11 -22 -35 -22q-25 0 -35 21q-6 13 -6 32q0 25 10 38.5t31 13.5q15 0 25 -8q16 -13 16 -44z" />
    <glyph glyph-name="at" unicode="@" horiz-adv-x="917" 
d="M887 317q0 -108 -59 -181q-66 -82 -184 -82q-30 0 -49 9q-30 14 -33 52q-64 -61 -162 -61q-92 0 -141 54q-44 48 -44 120q0 128 92 211q107 96 308 96q38 0 50 -19q8 -12 5 -31l-52 -332q-4 -22 6 -32.5t32 -10.5q59 0 109 53q58 61 58 154q0 131 -83 229
q-100 118 -282 118q-166 0 -268 -112q-96 -105 -96 -260q0 -180 116 -282q102 -90 248 -90q50 0 88 10q21 5 101 42q13 5 21 5q26 0 26 -28q0 -12 -6 -19t-19 -14q-50 -29 -99.5 -41t-111.5 -12q-185 0 -303 111q-125 117 -125 318q0 178 112 299q120 130 316 130
q209 0 327 -130q102 -113 102 -274zM607 481h-41q-125 0 -206 -65t-81 -168q0 -138 132 -138q84 0 123 53q29 39 43 127z" />
    <glyph glyph-name="A" unicode="A" horiz-adv-x="592" 
d="M588 85q2 -15 3.5 -27t1.5 -20q0 -19 -6 -28.5t-23 -9.5t-24 8.5t-9 28.5l-5 35q-16 112 -116 194q-110 90 -262 90q-33 -85 -55 -171q-18 -69 -29 -145q-2 -13 -4 -19q-8 -21 -30 -21q-17 0 -23.5 11t-6.5 30q0 16 2 28.5t3 20.5q23 139 91.5 314.5t139.5 269.5
q11 15 20 22q14 11 33 11q20 0 35 -10q10 -7 21 -22q80 -101 156 -293q71 -178 87 -297zM464 298q-41 116 -90 208q-38 72 -85 136q-30 -46 -52 -87q-32 -60 -63 -141q66 0 132 -22q88 -29 158 -94z" />
    <glyph glyph-name="B" unicode="B" horiz-adv-x="582" 
d="M562 203q0 -89 -57 -146t-149 -57h-278q-19 0 -28.5 9.5t-9.5 27.5v626q0 17 9 27t29 10h291q78 0 115 -45q31 -38 31 -100q0 -32 -14 -63q-18 -40 -60 -83q40 -27 68 -61q53 -65 53 -145zM445 560q0 35 -16 55q-22 27 -71 27h-251v-126q88 0 170 -27q46 -15 111 -49
q26 24 41.5 56.5t15.5 63.5zM492 199q0 104 -117 180.5t-268 76.5v-398h224q86 0 128 48q33 38 33 93z" />
    <glyph glyph-name="C" unicode="C" horiz-adv-x="551" 
d="M541 28q0 -27 -34 -33q-12 -2 -48 -2q-184 0 -309 118q-130 122 -130 312q0 132 75.5 204.5t202.5 72.5h204q16 0 25.5 -7.5t9.5 -21.5q0 -9 -5 -16q-9 -13 -30 -13h-176q-119 0 -174 -51q-62 -58 -62 -174q0 -148 101 -250q107 -108 275 -108h27q19 0 33.5 -3.5
t14.5 -27.5z" />
    <glyph glyph-name="D" unicode="D" horiz-adv-x="580" 
d="M560 277q0 -116 -63 -190q-74 -87 -212 -87h-195q-29 0 -39.5 15t-10.5 39v590q0 32 15.5 44t62.5 12q208 0 331 -133q111 -120 111 -290zM490 276q0 157 -108.5 261.5t-275.5 104.5v-584h163q104 0 162.5 54.5t58.5 163.5z" />
    <glyph glyph-name="E" unicode="E" horiz-adv-x="464" 
d="M454 29q0 -9 -5 -16q-9 -13 -30 -13h-337q-30 0 -38 26q-4 14 -4 28v602q0 44 44 44h335q16 0 25.5 -7.5t9.5 -21.5q0 -9 -5 -16q-9 -13 -30 -13h-313v-131h313q16 0 25.5 -7.5t9.5 -21.5q0 -9 -5 -16q-9 -13 -30 -13h-313v-395h313q16 0 25.5 -7.5t9.5 -21.5z" />
    <glyph glyph-name="F" unicode="F" horiz-adv-x="462" 
d="M454 482q0 -9 -5 -16q-9 -13 -30 -13h-313v-416q0 -17 -9 -27t-24 -10q-14 0 -23.5 9.5t-9.5 27.5v619q0 44 44 44h335q16 0 25.5 -7.5t9.5 -21.5q0 -9 -5 -16q-9 -13 -30 -13h-313v-131h313q16 0 25.5 -7.5t9.5 -21.5z" />
    <glyph glyph-name="G" unicode="G" horiz-adv-x="638" 
d="M598 54q0 -35 -10 -46q-13 -15 -56 -15q-192 0 -334 90q-178 113 -178 324q0 178 114 249q70 44 176 44h242q16 0 25.5 -7.5t9.5 -21.5q0 -9 -5 -16q-9 -13 -30 -13h-242q-112 0 -166 -57t-54 -172q0 -171 136 -269q122 -88 306 -88v401h-186q-16 0 -25.5 7.5t-9.5 21.5
q0 9 5 16q9 13 30 13h220q21 0 28 -20q4 -12 4 -38v-403z" />
    <glyph glyph-name="H" unicode="H" horiz-adv-x="555" 
d="M515 37q0 -17 -9 -27t-24 -10q-14 0 -23.5 9.5t-9.5 27.5v416h-343v-416q0 -17 -9 -27t-24 -10q-14 0 -23.5 9.5t-9.5 27.5v626q0 17 9 27t24 10q14 0 23.5 -9.5t9.5 -27.5v-152h343v152q0 17 9 27t24 10q14 0 23.5 -9.5t9.5 -27.5v-626z" />
    <glyph glyph-name="I" unicode="I" horiz-adv-x="146" 
d="M106 37q0 -17 -9 -27t-24 -10q-14 0 -23.5 9.5t-9.5 27.5v626q0 17 9 27t24 10q14 0 23.5 -9.5t9.5 -27.5v-626z" />
    <glyph glyph-name="J" unicode="J" horiz-adv-x="325" 
d="M285 225q0 -93 -30 -145q-51 -87 -183 -87q-38 0 -74 5.5t-63 19.5q-14 7 -23 16q-12 12 -12 28q0 11 3.5 18.5t14.5 12.5q8 2 12 2q8 0 18.5 -4.5t16.5 -7.5q45 -22 113 -22q90 0 122 64q19 39 19 115v423q0 17 9 27t24 10q14 0 23.5 -9.5t9.5 -27.5v-438z" />
    <glyph glyph-name="K" unicode="K" horiz-adv-x="552" 
d="M539 37q0 -10 -1 -15q-5 -22 -29 -22q-18 0 -24.5 11t-8.5 29q-12 81 -36 148q-40 113 -108 177q-91 86 -226 86v-414q0 -17 -9 -27t-24 -10q-14 0 -23.5 9.5t-9.5 27.5v626q0 17 9 27t24 10q14 0 23.5 -9.5t9.5 -27.5v-152q36 0 72.5 -6.5t70.5 -18.5q83 25 133 90
q31 40 49 93q5 17 10.5 24t22.5 7q14 0 20.5 -9.5t6.5 -25.5q0 -10 -4 -28q-14 -57 -60.5 -107.5t-108.5 -78.5q109 -69 170 -201q51 -110 51 -213z" />
    <glyph glyph-name="L" unicode="L" horiz-adv-x="424" 
d="M444 29q0 -9 -5 -16q-9 -13 -30 -13h-336q-21 0 -29 16q-4 8 -4 21v626q0 17 9 27t24 10q14 0 24 -10t10 -27v-605h302q16 0 25.5 -7.5t9.5 -21.5z" />
    <glyph glyph-name="M" unicode="M" horiz-adv-x="676" 
d="M641 71v-13q0 -29 -6 -43.5t-26 -14.5q-19 0 -26 13t-7 31l-1 37q0 119 -9 224t-41 292q-41 -94 -82 -164q-67 -116 -105 -116q-45 0 -130 162q-31 59 -57 118q-29 -172 -39.5 -289t-10.5 -227l-1 -37q0 -18 -5 -28q-8 -16 -28 -16q-22 0 -27 18t-5 53q0 113 13 249
q18 183 53 332q6 24 12 33q10 15 32 15q17 0 27 -9q6 -6 13 -21q28 -63 56 -125q42 -84 100 -161q53 80 94 163q12 25 56 123q7 16 12 21q10 9 28 9q22 0 32 -14q6 -8 12 -34q34 -142 52 -332q14 -147 14 -249z" />
    <glyph glyph-name="N" unicode="N" horiz-adv-x="542" 
d="M502 37q0 -17 -9 -27t-24 -10q-14 0 -23.5 9.5t-9.5 27.5v385q-210 24 -330 177v-562q0 -17 -9 -27t-24 -10q-14 0 -23.5 9.5t-9.5 27.5v607q0 21 5 33q9 23 34 23q14 0 24.5 -7t21.5 -20q69 -80 121 -118q85 -62 190 -73v181q0 17 9 27t24 10q14 0 23.5 -9.5t9.5 -27.5
v-626z" />
    <glyph glyph-name="O" unicode="O" horiz-adv-x="640" 
d="M620 354q0 -154 -73 -252q-81 -109 -227 -109q-145 0 -226 109q-74 99 -74 252q0 145 74 243q83 110 226 110q142 0 225 -110q75 -100 75 -243zM550 350q0 104 -43 181q-60 108 -190 108q-115 0 -175 -90q-52 -78 -52 -199q0 -120 51 -197q61 -92 180 -92q126 0 186 106
q43 76 43 183z" />
    <glyph glyph-name="P" unicode="P" horiz-adv-x="512" 
d="M504 588q0 -74 -77 -136q-60 -48 -165 -86q-80 -29 -156 -43v-286q0 -17 -9 -27t-24 -10q-14 0 -23.5 9.5t-9.5 27.5v626q0 17 9 27t24 10h286q79 0 116 -37q29 -29 29 -75zM434 588q0 34 -33 47q-18 7 -50 7h-245v-256q143 30 230 80q98 56 98 122z" />
    <glyph glyph-name="Q" unicode="Q" horiz-adv-x="655" 
d="M640 -78q0 -21 -17 -29q-11 -5 -28 -5q-59 0 -94 16q-60 27 -93 101q-44 -12 -88 -12q-132 0 -214 93q-86 98 -86 268q0 145 74 243q83 110 226 110q142 0 225 -110q75 -100 75 -243q0 -104 -34 -184q-38 -91 -119 -139q23 -52 64 -68q23 -9 73 -9q13 0 24.5 -6.5
t11.5 -25.5zM550 350q0 104 -43 181q-60 108 -190 108q-115 0 -175 -90q-52 -78 -52 -199q0 -145 71 -222q62 -67 160 -67q29 0 56 7q-28 66 -51 93q-31 36 -72 36q-10 0 -28.5 -6.5t-27.5 -6.5q-16 0 -24.5 7.5t-8.5 20.5q0 18 13 30q22 20 74 20q66 0 115 -52
q35 -37 70 -116q44 32 71 78q42 73 42 178z" />
    <glyph glyph-name="R" unicode="R" horiz-adv-x="570" 
d="M557 49q0 -27 -9 -38t-23 -11q-17 0 -25 13.5t-8 26.5q-9 78 -26 136q-36 119 -107 188q-97 94 -253 94v-421q0 -17 -9 -27t-24 -10q-14 0 -23.5 9.5t-9.5 27.5v626q0 37 33 37h279q82 0 123 -45q33 -36 33 -89q0 -47 -36 -95q-25 -33 -68 -66q72 -67 114 -171
q39 -95 39 -185zM438 552q0 47 -23.5 68.5t-69.5 21.5h-239v-124q53 0 106 -13q76 -19 147 -64q36 20 57.5 49.5t21.5 61.5z" />
    <glyph glyph-name="S" unicode="S" horiz-adv-x="566" 
d="M553 265q0 -106 -66 -180q-75 -85 -205 -85h-234q-16 0 -25.5 7.5t-9.5 21.5q0 9 5 16q9 13 30 13h221q105 0 163 61q51 54 51 138q0 76 -53 114q-34 24 -104 37l-117 22q-100 19 -132 38q-51 30 -51 99q0 56 31 90q39 43 118 43h263q16 0 25.5 -7.5t9.5 -21.5
q0 -9 -5 -16q-9 -13 -30 -13h-243q-41 0 -60 -8q-39 -16 -39 -64q0 -39 32 -55q19 -10 82 -20l92 -15q116 -19 168 -51q83 -52 83 -164z" />
    <glyph glyph-name="T" unicode="T" horiz-adv-x="450" 
d="M470 671q0 -9 -5 -16q-9 -13 -30 -13h-177v-605q0 -17 -9 -27t-24 -10q-14 0 -23.5 9.5t-9.5 27.5v605h-177q-16 0 -25.5 7.5t-9.5 21.5q0 9 5 16q9 13 30 13h420q16 0 25.5 -7.5t9.5 -21.5z" />
    <glyph glyph-name="U" unicode="U" horiz-adv-x="596" 
d="M576 237q0 -106 -63 -170q-73 -74 -215 -74t-214 73q-64 65 -64 171q0 25 0.5 32.5t9.5 64.5l47 327q3 22 10.5 30.5t22.5 8.5q19 0 26 -9t7 -23q0 -8 -1 -11l-46 -338q-2 -14 -5 -39.5t-3 -38.5q0 -75 42 -121q54 -59 167 -59q114 0 168 59q43 47 43 121q0 21 -3 43
t-5 35l-46 338q-1 7 -1 11q0 13 7 22.5t26 9.5q18 0 26 -14q5 -9 7 -25l47 -327q5 -34 7.5 -53.5t2.5 -43.5z" />
    <glyph glyph-name="V" unicode="V" horiz-adv-x="560" 
d="M557 627q-23 -159 -82 -323.5t-137 -272.5q-14 -19 -23 -26q-15 -12 -35 -12q-18 0 -31.5 10.5t-26.5 27.5q-78 109 -137 271.5t-82 324.5q-3 17 -3 32q0 20 7 30.5t26 10.5q15 0 23 -12q5 -8 7 -23q16 -98 27 -149q25 -114 65 -218q51 -134 125 -244q72 108 124 243
q39 101 65 219q15 66 28 149q2 15 8 25t22 10q18 0 25.5 -11.5t7.5 -30.5q0 -16 -3 -31z" />
    <glyph glyph-name="W" unicode="W" horiz-adv-x="794" 
d="M759 651l-1 -60q0 -124 -30 -277q-34 -175 -90 -282q-8 -17 -15 -24q-14 -15 -31 -15q-18 0 -32 13q-10 9 -20 26q-50 84 -89 198t-54 217q-15 -105 -53 -216.5t-90 -198.5q-10 -17 -20 -26q-14 -13 -32 -13q-17 0 -30 14q-8 8 -16 25q-54 103 -89 282q-31 157 -31 277
l-1 60q0 21 5.5 35t26.5 14q19 0 27 -14q5 -9 5 -23q0 -94 5.5 -171t30 -192t74.5 -236q59 119 98 247q31 104 46 207q12 84 12 147q0 19 8 27t24 8q19 0 27 -13q5 -8 5 -22q0 -78 10 -151q14 -104 44 -201q36 -117 102 -249q47 115 75 245q22 104 30 206q5 66 5 148
q0 20 8.5 28.5t23.5 8.5q20 0 26 -14.5t6 -34.5z" />
    <glyph glyph-name="X" unicode="X" horiz-adv-x="578" 
d="M562 65q3 -14 3 -28q0 -18 -7 -27.5t-26 -9.5q-15 0 -21.5 10t-10.5 29q-18 101 -44 159q-51 111 -167 199q-81 -61 -130 -134q-38 -56 -59 -125q-11 -37 -22 -99q-4 -21 -8 -27q-7 -12 -24 -12q-18 0 -25.5 10.5t-7.5 27.5q0 13 3 27q37 229 224 374q-46 32 -84 69
q-50 49 -80 100q-9 16 -14 28.5t-5 26.5q0 16 7.5 26.5t23.5 10.5q15 0 23 -9q5 -5 11 -22q21 -53 72 -109q42 -45 95 -84q53 38 95 84q51 56 72 109q5 15 12.5 23t21.5 8q16 0 23.5 -10t7.5 -27q0 -14 -5 -26.5t-14 -28.5q-30 -51 -80 -100q-38 -37 -84 -69
q94 -73 149.5 -164.5t74.5 -209.5z" />
    <glyph glyph-name="Y" unicode="Y" horiz-adv-x="486" 
d="M491 640q-21 -69 -61 -138q-64 -110 -154 -179v-286q0 -17 -9 -27t-24 -10q-14 0 -23.5 9.5t-9.5 27.5v286q-89 68 -153 178q-41 71 -62 139q-5 17 -5 27q0 18 9 25.5t24 7.5q16 0 25 -14q5 -7 11 -26q32 -101 87 -177q42 -59 97 -102q56 44 97 101q54 75 87 178
q6 19 10 25q10 15 26 15q14 0 23.5 -8t9.5 -26q0 -9 -5 -26z" />
    <glyph glyph-name="Z" unicode="Z" horiz-adv-x="457" 
d="M449 29q0 -9 -5 -16q-9 -13 -30 -13h-361q-19 0 -29 11q-16 17 -16 58q0 56 25 105q22 43 64 87q12 12 89 83l71 65q69 63 97 131q20 48 20 102h-304q-16 0 -25.5 7.5t-9.5 21.5q0 9 5 16q9 13 30 13h304q43 0 56 -17q10 -13 10 -48q0 -80 -37.5 -150.5t-116.5 -140.5
l-64 -57q-83 -73 -107 -106q-41 -55 -41 -123h340q16 0 25.5 -7.5t9.5 -21.5z" />
    <glyph glyph-name="bracketleft" unicode="[" horiz-adv-x="350" 
d="M320 -160q0 -9 -5 -16q-9 -13 -30 -13h-147q-19 0 -28.5 8.5t-9.5 34.5v802q0 19 5 28q9 16 33 16h147q16 0 25.5 -7.5t9.5 -21.5q0 -9 -5 -16q-9 -13 -30 -13h-72q-25 0 -31 -5q-16 -14 -16 -69v-639q0 -42 13 -53q8 -7 34 -7h72q16 0 25.5 -7.5t9.5 -21.5z" />
    <glyph glyph-name="backslash" unicode="\" horiz-adv-x="437" 
d="M444 -124q3 -8 3 -15q0 -12 -8 -21t-23 -9q-23 0 -33 22l-350 819q-3 8 -3 15q0 12 8 21t23 9q23 0 33 -22z" />
    <glyph glyph-name="bracketright" unicode="]" horiz-adv-x="350" 
d="M250 -145q0 -19 -5 -28q-9 -16 -33 -16h-147q-16 0 -25.5 7.5t-9.5 21.5q0 9 5 16q9 13 30 13h72q25 0 31 5q16 14 16 69v639q0 42 -13 53q-8 7 -34 7h-72q-16 0 -25.5 7.5t-9.5 21.5q0 9 5 16q9 13 30 13h147q19 0 28.5 -8.5t9.5 -34.5v-802z" />
    <glyph glyph-name="asciicircum" unicode="^" horiz-adv-x="442" 
d="M412 545q-3 -10 -9.5 -14.5t-15.5 -4.5q-17 0 -30 13l-136 132l-136 -132q-3 -3 -10.5 -8t-19.5 -5q-14 0 -19.5 10t-5.5 25q0 10 10 20l144 148q16 16 37 16q14 0 20.5 -2.5t16.5 -13.5l144 -148q6 -6 10 -20v-16z" />
    <glyph glyph-name="underscore" unicode="_" horiz-adv-x="401" 
d="M416 -133q0 -14 -10 -24.5t-25 -10.5h-361q-14 0 -24.5 9.5t-10.5 25.5q0 15 9 25t27 10h360q14 0 24.5 -9.5t10.5 -25.5z" />
    <glyph glyph-name="grave" unicode="`" horiz-adv-x="156" 
d="M116 580q0 -22 -24 -22q-12 0 -24 12l-95 100q-3 3 -8 9t-5 18q0 15 8.5 22.5t21.5 7.5q18 0 30 -16l85 -105q7 -8 9 -13.5t2 -12.5z" />
    <glyph glyph-name="a" unicode="a" horiz-adv-x="485" 
d="M445 32q0 -32 -30 -32t-30 32v22q-28 -27 -59 -40q-42 -18 -103 -18q-108 0 -161 53q-42 42 -42 104q0 88 77 135q89 54 288 54v17q0 48 -25 73t-74 25h-200q-13 0 -22 7t-9 20q0 17 11.5 22t22.5 5h207q66 0 107.5 -37.5t41.5 -102.5v-339zM385 169v121q-129 0 -194 -19
q-107 -31 -107 -116q0 -45 32 -73q37 -32 107 -32q68 0 111 27q51 32 51 92z" />
    <glyph glyph-name="b" unicode="b" 
d="M484 221q0 -95 -56 -155q-61 -66 -170 -66h-182q-18 0 -27 8t-9 24v636q0 32 30 32t30 -32v-157h15q175 0 277 -91q92 -82 92 -199zM420 216q0 105 -84 173t-220 68h-16v-403h143q84 0 130.5 41.5t46.5 120.5z" />
    <glyph glyph-name="c" unicode="c" horiz-adv-x="458" 
d="M458 28q0 -8 -4 -15q-7 -13 -25 -13l-38 -3l-44 -1q-159 0 -248 91q-79 81 -79 204q0 90 44 147q57 73 177 73h167q28 0 28 -27t-28 -27h-141q-73 0 -114 -23q-69 -39 -69 -143q0 -100 72 -167q77 -72 204 -72l38 1l28 1q18 0 25 -8t7 -18z" />
    <glyph glyph-name="d" unicode="d" horiz-adv-x="514" 
d="M474 32q0 -32 -30 -32h-188q-123 0 -185 67q-53 57 -53 149q0 131 104 213t277 82h15v157q0 32 30 32t30 -32v-636zM414 54v403h-16q-143 0 -229.5 -66.5t-86.5 -179.5q0 -98 72 -135q43 -22 115 -22h145z" />
    <glyph glyph-name="e" unicode="e" 
d="M480 300q0 -19 -4 -27q-8 -16 -29 -16h-363q0 -101 58.5 -153t164.5 -52h43q18 3 27 4l36 4q13 2 20 2.5t14 0.5q14 0 21.5 -5.5t7.5 -20.5q0 -16 -15 -24q-9 -5 -27 -7l-61 -6q-36 -4 -80 -4q-132 0 -202.5 68.5t-70.5 187.5q0 118 68.5 190.5t177.5 72.5q101 0 160 -67
q54 -61 54 -148zM416 311q0 67 -44.5 107.5t-108.5 40.5q-66 0 -112.5 -40.5t-60.5 -106.5z" />
    <glyph glyph-name="f" unicode="f" horiz-adv-x="238" 
d="M298 673q0 -16 -14 -23q-9 -4 -17 -4h-70q-42 0 -61.5 -21.5t-19.5 -63.5v-50h102q12 0 19 -3q15 -7 15 -24q0 -16 -14 -23q-9 -4 -17 -4h-105v-425q0 -32 -30 -32t-30 32v425h-40q-13 0 -22 7t-9 20q0 17 11.5 22t22.5 5h37v59q0 83 66 113q37 17 101 17h41q12 0 19 -3
q15 -7 15 -24z" />
    <glyph glyph-name="g" unicode="g" horiz-adv-x="559" 
d="M557 -43q0 -78 -77.5 -117t-217.5 -39q-75 0 -133 14q-39 9 -75 28q-16 8 -22 14q-12 11 -12 24q0 26 22 26q13 0 33 -10q41 -22 87.5 -31t102.5 -9q133 0 190 37q38 25 38 58q0 30 -22 41q-14 7 -39 7h-174q-123 0 -186 73q-51 60 -51 148q0 119 90 200q100 90 272 90
h105q12 0 19 -3q15 -7 15 -24q0 -16 -14 -23q-9 -4 -17 -4h-22v-403q35 -5 58 -25q30 -26 30 -72zM409 54v403h-24q-131 0 -215.5 -66t-84.5 -174q0 -82 48 -122.5t138 -40.5h138z" />
    <glyph glyph-name="h" unicode="h" horiz-adv-x="491" 
d="M455 32q0 -32 -30 -32t-30 32v289q0 70 -36 104t-97 34q-73 0 -117.5 -51.5t-44.5 -140.5v-235q0 -32 -30 -32t-30 32v636q0 32 30 32t30 -32v-241q24 42 64.5 65t96.5 23q85 0 139.5 -48.5t54.5 -130.5v-304z" />
    <glyph glyph-name="i" unicode="i" horiz-adv-x="148" 
d="M108 611q0 -21 -5 -32q-9 -19 -30 -19q-17 0 -25 14.5t-8 36.5t8 36.5t25 14.5q18 0 26.5 -13.5t8.5 -37.5zM104 32q0 -32 -30 -32t-30 32v447q0 32 30 32t30 -32v-447z" />
    <glyph glyph-name="j" unicode="j" horiz-adv-x="168" 
d="M128 611q0 -21 -5 -32q-9 -19 -30 -19q-17 0 -25 14.5t-8 36.5t8 36.5t25 14.5q18 0 26.5 -13.5t8.5 -37.5zM126 18q0 -106 -50.5 -162.5t-147.5 -56.5q-15 0 -30.5 1t-31.5 4t-23 8q-13 9 -13 24q0 14 8.5 21.5t19.5 7.5q6 0 19.5 -4t24.5 -5t27 -1q51 0 84 25
q53 40 53 138v461q0 32 30 32t30 -32v-461z" />
    <glyph glyph-name="k" unicode="k" horiz-adv-x="466" 
d="M459 44q0 -26 -6.5 -35t-22.5 -9q-17 0 -24 11.5t-7 25.5q0 130 -91 205q-84 69 -208 69v-279q0 -32 -30 -32t-30 32v636q0 32 30 32t30 -32v-303q111 0 180 43q47 29 84 86q6 9 8 11q7 6 18 6q25 0 25 -26q0 -24 -23.5 -56t-54.5 -54q-37 -26 -85 -38q93 -28 151 -105
q55 -73 55 -158z" />
    <glyph glyph-name="l" unicode="l" horiz-adv-x="140" 
d="M100 32q0 -32 -30 -32t-30 32v636q0 32 30 32t30 -32v-636z" />
    <glyph glyph-name="m" unicode="m" horiz-adv-x="790" 
d="M752 32q0 -32 -30 -32t-30 32v278q0 61 -16 94q-27 55 -97 55q-65 0 -106 -37q-47 -43 -47 -123v-267q0 -32 -30 -32t-30 32v286q0 83 -44 118q-29 23 -75 23q-91 0 -126 -80q-21 -48 -21 -126v-223q0 -32 -30 -32t-30 32v449q0 32 30 32t30 -32v-47q28 49 77 69
q34 14 76 14q43 0 74 -13q55 -23 77 -83q36 59 96 82q36 14 77 14q82 0 128.5 -44.5t46.5 -118.5v-320z" />
    <glyph glyph-name="n" unicode="n" horiz-adv-x="493" 
d="M455 32q0 -32 -30 -32t-30 32v289q0 75 -44 110q-35 28 -94 28q-67 0 -110 -47q-47 -52 -47 -145v-235q0 -32 -30 -32t-30 32v447q0 32 30 32t30 -32v-52q24 42 64.5 65t96.5 23q85 0 139.5 -48.5t54.5 -130.5v-304z" />
    <glyph glyph-name="o" unicode="o" horiz-adv-x="506" 
d="M486 255q0 -107 -53 -177q-62 -82 -180 -82q-116 0 -179 82q-54 71 -54 177q0 111 63.5 185.5t169.5 74.5q105 0 169 -74.5t64 -185.5zM422 256q0 84 -41 140q-46 63 -128 63q-81 0 -127 -63q-42 -57 -42 -140q0 -93 44 -148.5t125 -55.5q80 0 124.5 55.5t44.5 148.5z
" />
    <glyph glyph-name="p" unicode="p" 
d="M484 216q0 -90 -50 -147q-60 -69 -179 -69h-155v-157q0 -32 -30 -32t-30 32v636q0 32 30 32h63q141 0 243 -79q108 -84 108 -216zM420 211q0 109 -84.5 177.5t-221.5 68.5h-14v-403h137q73 0 114 22q69 37 69 135z" />
    <glyph glyph-name="q" unicode="q" 
d="M462 -157q0 -32 -30 -32t-30 32v157h-156q-105 0 -166.5 60.5t-61.5 160.5q0 124 98.5 207t257.5 83h58q30 0 30 -32v-636zM402 54v403h-14q-124 0 -209 -58q-97 -66 -97 -184q0 -96 64 -135q43 -26 114 -26h142z" />
    <glyph glyph-name="r" unicode="r" horiz-adv-x="250" 
d="M280 483q0 -16 -11 -23q-7 -4 -17 -4q-65 0 -97 -20q-55 -34 -55 -127v-277q0 -32 -30 -32t-30 32v447q0 32 30 32t30 -32v-31q19 30 47 45q33 18 86 18q22 0 34.5 -5t12.5 -23z" />
    <glyph glyph-name="s" unicode="s" horiz-adv-x="472" 
d="M462 180q0 -80 -51 -130t-129 -50h-241q-13 0 -22 7t-9 20q0 17 11.5 22t22.5 5h241q52 0 82.5 30.5t30.5 87.5t-35 83q-22 16 -61 22l-177 25q-51 8 -77.5 34.5t-26.5 68.5q0 53 32.5 79.5t92.5 26.5h236q13 0 22 -7t9 -20q0 -17 -11.5 -22t-22.5 -5h-233q-28 0 -39 -5
q-22 -10 -22 -37q0 -21 12.5 -35.5t46.5 -19.5l179 -26q68 -9 103.5 -49.5t35.5 -104.5z" />
    <glyph glyph-name="t" unicode="t" horiz-adv-x="265" 
d="M285 27q0 -16 -14 -23q-9 -4 -17 -4h-71q-79 0 -105 40q-22 33 -22 104v313h-40q-13 0 -22 7t-9 20q0 17 11.5 22t22.5 5h37v103q0 32 30 32t30 -32v-103h118q12 0 19 -3q15 -7 15 -24q0 -16 -14 -23q-9 -4 -17 -4h-121v-302q0 -53 12.5 -77t45.5 -24h77q12 0 19 -3
q15 -7 15 -24z" />
    <glyph glyph-name="u" unicode="u" horiz-adv-x="495" 
d="M455 32q0 -36 -30 -36t-30 36v42q-38 -46 -88 -65q-35 -13 -76 -13q-90 0 -140.5 48.5t-50.5 130.5v304q0 32 30 32t30 -32v-290q0 -64 33.5 -100.5t94.5 -36.5q71 0 115 42q52 50 52 150v235q0 32 30 32t30 -32v-447z" />
    <glyph glyph-name="v" unicode="v" horiz-adv-x="454" 
d="M447 436q-21 -125 -68 -237q-43 -102 -101 -175q-12 -15 -22 -21.5t-29 -6.5q-18 0 -28.5 6t-22.5 22q-56 71 -100 175q-49 115 -69 237q-2 9 -3 17.5t-1 20.5q0 18 6 27.5t23 9.5t25 -16q5 -9 7 -27q12 -93 38 -170q41 -125 125 -247q59 86 96 171q30 68 48 142
q11 45 19 104q2 18 8.5 30.5t23.5 12.5q16 0 22.5 -10.5t6.5 -27.5q0 -15 -4 -37z" />
    <glyph glyph-name="w" unicode="w" horiz-adv-x="602" 
d="M590 467q0 -173 -34 -299q-22 -82 -58 -138q-10 -16 -19 -23q-14 -11 -31 -11q-19 0 -32 12q-8 7 -19 26q-31 56 -57.5 137t-38.5 154q-13 -78 -38 -155.5t-58 -135.5q-11 -18 -18 -25q-14 -13 -33 -13q-17 0 -28 8.5t-22 25.5q-45 71 -68.5 189t-23.5 248q0 24 6.5 34
t23.5 10q16 0 23 -12q4 -7 4 -21q0 -113 11 -185q18 -120 74 -239q52 105 81 224q18 74 36 197q3 22 9 29t21 7q14 0 20.5 -6.5t9.5 -29.5q14 -98 20 -128q14 -74 36.5 -145t60.5 -148q54 116 73 239q12 78 12 185q0 13 5 23t22 10q16 0 23 -10t7 -34z" />
    <glyph glyph-name="x" unicode="x" horiz-adv-x="428" 
d="M416 83q4 -20 4.5 -27.5t0.5 -15.5q0 -18 -6.5 -29t-23.5 -11q-19 0 -26 20q-2 6 -4 19q-7 57 -31 98q-34 58 -116 122q-83 -64 -116 -121q-24 -40 -31 -99q-3 -17 -6 -24q-7 -15 -24 -15t-23.5 11t-6.5 30t5 42q15 70 65 129q35 41 86 75q-43 30 -75 69q-38 47 -47 94
q-3 15 -3 28q0 33 30 33q18 0 24 -13t6 -28q4 -40 35 -81.5t81 -74.5q51 34 81.5 74t34.5 82q0 16 4 25q8 16 26 16q30 0 30 -33q0 -13 -3 -28q-9 -48 -46 -94q-30 -38 -76 -69q49 -33 85 -75q51 -61 66 -129z" />
    <glyph glyph-name="y" unicode="y" horiz-adv-x="450" 
d="M443 444q-15 -121 -82 -276q-80 -185 -205 -340q-7 -8 -13 -12.5t-16 -4.5q-30 0 -30 26q0 9 3.5 16t10.5 16q12 16 31 41q25 34 52 76q-79 108 -125 213t-60 214q-2 23 -3 34t-1 22q0 18 4.5 30t23.5 12q14 0 23 -9t9 -27q10 -106 34 -182q40 -127 131 -251
q77 127 115 248q24 76 41 187q3 15 6 21q8 13 25 13q15 0 21.5 -10.5t6.5 -29.5v-13q-2 -10 -2 -14z" />
    <glyph glyph-name="z" unicode="z" horiz-adv-x="416" 
d="M406 27q0 -11 -5 -17q-8 -10 -26 -10h-326q-21 0 -30 10t-9 38q0 71 60 143q39 48 124 113q124 95 140 153h-255q-13 0 -22 7t-9 20q0 17 11.5 22t22.5 5h280q19 0 27.5 -9.5t8.5 -29.5q0 -53 -50 -111q-31 -36 -92 -84q-100 -80 -131 -115q-43 -48 -56 -108h303
q13 0 23.5 -5t10.5 -22z" />
    <glyph glyph-name="braceleft" unicode="{" horiz-adv-x="314" 
d="M329 -157q0 -20 -19 -26q-9 -3 -31 -3q-68 0 -97 22q-43 33 -43 130v107q0 73 -11 100t-42 50q-22 16 -29 25t-7 24q0 18 11 29q6 6 25 20q32 24 42.5 50t10.5 100v107q0 96 43 129q30 23 97 23q22 0 36 -4.5t14 -24.5q0 -14 -6 -21q-10 -12 -34 -12l-27 -1
q-30 0 -42 -20.5t-12 -71.5v-136q0 -60 -13 -89t-47 -53q-8 -6 -16.5 -12t-8.5 -12q0 -7 9.5 -14.5t15.5 -11.5q33 -23 46.5 -53t13.5 -89v-136q0 -53 11.5 -72.5t42.5 -19.5l27 -1q23 0 33 -12q7 -8 7 -21z" />
    <glyph glyph-name="bar" unicode="|" horiz-adv-x="80" 
d="M75 -154q0 -35 -35 -35t-35 35v850q0 15 10 25t25 10q35 0 35 -35v-850z" />
    <glyph glyph-name="braceright" unicode="}" horiz-adv-x="314" 
d="M264 272q0 -18 -11 -29q-6 -6 -25 -20q-32 -23 -41 -46q-12 -30 -12 -104v-107q0 -96 -43 -129q-30 -23 -97 -23q-22 0 -31 3q-19 6 -19 26q0 14 6 21q10 12 34 12l27 1q30 0 42 20.5t12 71.5v136q0 60 13 89t47 53q6 4 12 9q13 9 13 15q0 7 -9.5 14.5t-15.5 11.5
q-33 23 -45 50q-15 33 -15 92v136q0 53 -11.5 72.5t-42.5 19.5l-27 1q-23 0 -31.5 10t-8.5 23q0 20 14 24.5t36 4.5q68 0 97 -22q43 -33 43 -130v-107q0 -73 11 -100t42 -50q22 -16 29 -25t7 -24z" />
    <glyph glyph-name="asciitilde" unicode="~" horiz-adv-x="414" 
d="M384 727q0 -28 -31.5 -48t-71.5 -20q-26 0 -58 13l-36 15q-16 7 -28 10.5t-26 3.5q-17 0 -28 -7q-5 -3 -18 -16q-8 -8 -13 -11.5t-15 -3.5q-12 0 -20.5 7.5t-8.5 22.5q0 26 28 47t62 21q15 0 28 -1.5t38 -11.5l32 -12q17 -7 33.5 -12t29.5 -5q15 0 24.5 4t22.5 19
q8 9 13.5 12t13.5 3q12 0 20.5 -7.5t8.5 -22.5z" />
    <glyph glyph-name="c128" horiz-adv-x="654" 
d="M634 242q0 -104 -63 -173t-158 -69h-16q-29 0 -36 2q-21 6 -21 26q0 19 13 24.5t30 5.5q92 0 141 55q44 49 44 126q0 74 -46 113t-122 39q-34 0 -74.5 -8t-77.5 -21v-325q0 -17 -9 -27t-24 -10q-14 0 -23.5 9.5t-9.5 27.5v605h-167q-16 0 -25.5 7.5t-9.5 21.5q0 9 5 16
q9 13 30 13h420q16 0 25.5 -7.5t9.5 -21.5q0 -9 -5 -16q-9 -13 -30 -13h-187v-214q80 25 157 25q108 0 168.5 -53t60.5 -158z" />
    <glyph glyph-name="c128" unicode="&#x402;" horiz-adv-x="654" 
d="M634 242q0 -104 -63 -173t-158 -69h-16q-29 0 -36 2q-21 6 -21 26q0 19 13 24.5t30 5.5q92 0 141 55q44 49 44 126q0 74 -46 113t-122 39q-34 0 -74.5 -8t-77.5 -21v-325q0 -17 -9 -27t-24 -10q-14 0 -23.5 9.5t-9.5 27.5v605h-167q-16 0 -25.5 7.5t-9.5 21.5q0 9 5 16
q9 13 30 13h420q16 0 25.5 -7.5t9.5 -21.5q0 -9 -5 -16q-9 -13 -30 -13h-187v-214q80 25 157 25q108 0 168.5 -53t60.5 -158z" />
    <glyph glyph-name="c129" horiz-adv-x="406" 
d="M355 868q0 -9 -2.5 -14t-10.5 -14l-95 -100q-5 -5 -11 -8.5t-15 -3.5q-22 0 -22 22q0 9 5 18q1 2 6 8l85 105q12 16 30 16q13 0 21.5 -7.5t8.5 -21.5zM431 671q0 -9 -5 -16q-9 -13 -30 -13h-289v-605q0 -16 -10 -26.5t-24 -10.5t-23.5 9.5t-9.5 27.5v626q0 37 33 37h323
q16 0 25.5 -7.5t9.5 -21.5z" />
    <glyph glyph-name="c129" unicode="&#x403;" horiz-adv-x="406" 
d="M355 868q0 -9 -2.5 -14t-10.5 -14l-95 -100q-5 -5 -11 -8.5t-15 -3.5q-22 0 -22 22q0 9 5 18q1 2 6 8l85 105q12 16 30 16q13 0 21.5 -7.5t8.5 -21.5zM431 671q0 -9 -5 -16q-9 -13 -30 -13h-289v-605q0 -16 -10 -26.5t-24 -10.5t-23.5 9.5t-9.5 27.5v626q0 37 33 37h323
q16 0 25.5 -7.5t9.5 -21.5z" />
    <glyph glyph-name="c141" horiz-adv-x="552" 
d="M376 868q0 -9 -2.5 -14t-10.5 -14l-95 -100q-5 -5 -11 -8.5t-15 -3.5q-22 0 -22 22q0 9 5 18q1 2 6 8l85 105q12 16 30 16q13 0 21.5 -7.5t8.5 -21.5zM539 37q0 -10 -1 -15q-5 -22 -29 -22q-18 0 -24.5 11t-8.5 29q-12 81 -36 148q-40 113 -108 177q-91 86 -226 86v-414
q0 -17 -9 -27t-24 -10q-14 0 -23.5 9.5t-9.5 27.5v626q0 17 9 27t24 10q14 0 23.5 -9.5t9.5 -27.5v-152q36 0 72.5 -6.5t70.5 -18.5q83 25 133 90q31 40 49 93q5 17 10.5 24t22.5 7q14 0 20.5 -9.5t6.5 -25.5q0 -10 -4 -28q-14 -57 -60.5 -107.5t-108.5 -78.5
q109 -69 170 -201q51 -110 51 -213z" />
    <glyph glyph-name="c141" unicode="&#x40c;" horiz-adv-x="552" 
d="M376 868q0 -9 -2.5 -14t-10.5 -14l-95 -100q-5 -5 -11 -8.5t-15 -3.5q-22 0 -22 22q0 9 5 18q1 2 6 8l85 105q12 16 30 16q13 0 21.5 -7.5t8.5 -21.5zM539 37q0 -10 -1 -15q-5 -22 -29 -22q-18 0 -24.5 11t-8.5 29q-12 81 -36 148q-40 113 -108 177q-91 86 -226 86v-414
q0 -17 -9 -27t-24 -10q-14 0 -23.5 9.5t-9.5 27.5v626q0 17 9 27t24 10q14 0 23.5 -9.5t9.5 -27.5v-152q36 0 72.5 -6.5t70.5 -18.5q83 25 133 90q31 40 49 93q5 17 10.5 24t22.5 7q14 0 20.5 -9.5t6.5 -25.5q0 -10 -4 -28q-14 -57 -60.5 -107.5t-108.5 -78.5
q109 -69 170 -201q51 -110 51 -213z" />
    <glyph glyph-name="c142" horiz-adv-x="654" 
d="M634 197q0 -53 -2.5 -87t-6 -58t-10.5 -36q-10 -16 -29 -16q-16 0 -21.5 9t-5.5 27v13q2 10 3.5 23.5t3.5 52t2 69.5q0 72 -24 118q-41 79 -144 79q-34 0 -74.5 -8t-77.5 -21v-325q0 -17 -9 -27t-24 -10q-14 0 -23.5 9.5t-9.5 27.5v605h-167q-16 0 -25.5 7.5t-9.5 21.5
q0 9 5 16q9 13 30 13h420q16 0 25.5 -7.5t9.5 -21.5q0 -9 -5 -16q-9 -13 -30 -13h-187v-214q34 10 56 15q48 10 91 10q88 0 141 -33q98 -60 98 -223z" />
    <glyph glyph-name="c142" unicode="&#x40b;" horiz-adv-x="654" 
d="M634 197q0 -53 -2.5 -87t-6 -58t-10.5 -36q-10 -16 -29 -16q-16 0 -21.5 9t-5.5 27v13q2 10 3.5 23.5t3.5 52t2 69.5q0 72 -24 118q-41 79 -144 79q-34 0 -74.5 -8t-77.5 -21v-325q0 -17 -9 -27t-24 -10q-14 0 -23.5 9.5t-9.5 27.5v605h-167q-16 0 -25.5 7.5t-9.5 21.5
q0 9 5 16q9 13 30 13h420q16 0 25.5 -7.5t9.5 -21.5q0 -9 -5 -16q-9 -13 -30 -13h-187v-214q34 10 56 15q48 10 91 10q88 0 141 -33q98 -60 98 -223z" />
    <glyph glyph-name="c143" horiz-adv-x="554" 
d="M514 37q0 -37 -33 -37h-171v-127q0 -17 -9 -27t-24 -10q-14 0 -23.5 9.5t-9.5 27.5v127h-171q-33 0 -33 37v626q0 17 9 27t24 10q14 0 23.5 -9.5t9.5 -27.5v-605h342v605q0 17 9 27t24 10q14 0 23.5 -9.5t9.5 -27.5v-626z" />
    <glyph glyph-name="c143" unicode="&#x40f;" horiz-adv-x="554" 
d="M514 37q0 -37 -33 -37h-171v-127q0 -17 -9 -27t-24 -10q-14 0 -23.5 9.5t-9.5 27.5v127h-171q-33 0 -33 37v626q0 17 9 27t24 10q14 0 23.5 -9.5t9.5 -27.5v-605h342v605q0 17 9 27t24 10q14 0 23.5 -9.5t9.5 -27.5v-626z" />
    <glyph glyph-name="c144" horiz-adv-x="499" 
d="M469 321q0 -101 -52 -261q-41 -126 -89 -220q-6 -13 -13.5 -20.5t-20.5 -7.5q-14 0 -20 7t-6 19q0 15 13 44q54 116 85 217q23 75 33 143q6 41 6 74q0 78 -45 114q-36 29 -94 29q-67 0 -110 -48q-47 -53 -47 -144v-235q0 -32 -30 -32t-30 32v547h-53q-13 0 -22 7t-9 20
q0 17 11.5 22t22.5 5h50v35q0 32 30 32t30 -32v-35h150q12 0 19 -3q15 -7 15 -24q0 -16 -14 -23q-9 -4 -17 -4h-153v-152q24 42 64.5 65t96.5 23q89 0 139 -41q60 -49 60 -153z" />
    <glyph glyph-name="c144" unicode="&#x452;" horiz-adv-x="499" 
d="M469 321q0 -101 -52 -261q-41 -126 -89 -220q-6 -13 -13.5 -20.5t-20.5 -7.5q-14 0 -20 7t-6 19q0 15 13 44q54 116 85 217q23 75 33 143q6 41 6 74q0 78 -45 114q-36 29 -94 29q-67 0 -110 -48q-47 -53 -47 -144v-235q0 -32 -30 -32t-30 32v547h-53q-13 0 -22 7t-9 20
q0 17 11.5 22t22.5 5h50v35q0 32 30 32t30 -32v-35h150q12 0 19 -3q15 -7 15 -24q0 -16 -14 -23q-9 -4 -17 -4h-153v-152q24 42 64.5 65t96.5 23q89 0 139 -41q60 -49 60 -153z" />
    <glyph glyph-name="c157" horiz-adv-x="468" 
d="M352 697q0 -14 -13 -27l-95 -100q-12 -12 -24 -12q-24 0 -24 22q0 9 5 18q1 2 6 8l85 105q12 16 30 16q14 0 22 -8t8 -22zM458 42q0 -18 -4 -27q-7 -15 -26 -15q-17 0 -24 12.5t-7 26.5q0 80 -43 144.5t-116 97.5q-27 -9 -62.5 -13t-75.5 -4v-232q0 -32 -30 -32t-30 32
v447q0 32 30 32t30 -32v-161q79 0 136 24q94 40 138 145q6 13 10.5 18.5t17.5 5.5q29 0 29 -27q0 -10 -3 -20t-10 -26q-24 -50 -61 -85q-25 -23 -55 -40q81 -48 121 -125q35 -67 35 -146z" />
    <glyph glyph-name="c157" unicode="&#x45c;" horiz-adv-x="468" 
d="M352 697q0 -14 -13 -27l-95 -100q-12 -12 -24 -12q-24 0 -24 22q0 9 5 18q1 2 6 8l85 105q12 16 30 16q14 0 22 -8t8 -22zM458 42q0 -18 -4 -27q-7 -15 -26 -15q-17 0 -24 12.5t-7 26.5q0 80 -43 144.5t-116 97.5q-27 -9 -62.5 -13t-75.5 -4v-232q0 -32 -30 -32t-30 32
v447q0 32 30 32t30 -32v-161q79 0 136 24q94 40 138 145q6 13 10.5 18.5t17.5 5.5q29 0 29 -27q0 -10 -3 -20t-10 -26q-24 -50 -61 -85q-25 -23 -55 -40q81 -48 121 -125q35 -67 35 -146z" />
    <glyph glyph-name="c158" horiz-adv-x="500" 
d="M464 32q0 -32 -30 -32t-30 32v289q0 75 -44 110q-35 28 -94 28q-74 0 -115.5 -54.5t-41.5 -137.5v-235q0 -32 -30 -32t-30 32v547h-53q-13 0 -22 7t-9 20q0 17 11.5 22t22.5 5h50v35q0 32 30 32t30 -32v-35h150q12 0 19 -3q15 -7 15 -24q0 -16 -14 -23q-9 -4 -17 -4h-153
v-152q24 42 64.5 65t96.5 23q85 0 139.5 -48.5t54.5 -130.5v-304z" />
    <glyph glyph-name="c158" unicode="&#x45b;" horiz-adv-x="500" 
d="M464 32q0 -32 -30 -32t-30 32v289q0 75 -44 110q-35 28 -94 28q-74 0 -115.5 -54.5t-41.5 -137.5v-235q0 -32 -30 -32t-30 32v547h-53q-13 0 -22 7t-9 20q0 17 11.5 22t22.5 5h50v35q0 32 30 32t30 -32v-35h150q12 0 19 -3q15 -7 15 -24q0 -16 -14 -23q-9 -4 -17 -4h-153
v-152q24 42 64.5 65t96.5 23q85 0 139.5 -48.5t54.5 -130.5v-304z" />
    <glyph glyph-name="nonbreakingspace" unicode="&#xa0;" horiz-adv-x="500" 
 />
    <glyph glyph-name="exclamdown" unicode="&#xa1;" horiz-adv-x="516" 
d="M404 815q0 -30 -40 -57.5t-98 -27.5q-56 0 -97 28t-41 57q0 31 32 31q9 0 16 -6q3 -3 11 -14q15 -21 31.5 -30t47.5 -9q29 0 47 9.5t32 29.5q9 13 10 14q6 6 17 6q14 0 23 -9t9 -22zM506 661l-1 -36q-11 -123 -64 -252q-44 -109 -113 -213q-52 -78 -121 -159
q-7 -9 -12 -12q-9 -7 -20 -7q-15 0 -24.5 8.5t-9.5 25.5q0 10 6 20q3 5 12 15t36 44q36 46 60 76q-98 80 -162 194.5t-80 246.5l-3 49q0 18 5.5 28.5t22.5 10.5q22 0 30 -17q5 -10 7 -35q13 -133 67.5 -240t149.5 -185q83 121 121 248q29 97 29 185q0 18 6.5 31t25.5 13
q15 0 23.5 -11.5t8.5 -27.5z" />
    <glyph glyph-name="exclamdown" unicode="&#x40e;" horiz-adv-x="516" 
d="M404 815q0 -30 -40 -57.5t-98 -27.5q-56 0 -97 28t-41 57q0 31 32 31q9 0 16 -6q3 -3 11 -14q15 -21 31.5 -30t47.5 -9q29 0 47 9.5t32 29.5q9 13 10 14q6 6 17 6q14 0 23 -9t9 -22zM506 661l-1 -36q-11 -123 -64 -252q-44 -109 -113 -213q-52 -78 -121 -159
q-7 -9 -12 -12q-9 -7 -20 -7q-15 0 -24.5 8.5t-9.5 25.5q0 10 6 20q3 5 12 15t36 44q36 46 60 76q-98 80 -162 194.5t-80 246.5l-3 49q0 18 5.5 28.5t22.5 10.5q22 0 30 -17q5 -10 7 -35q13 -133 67.5 -240t149.5 -185q83 121 121 248q29 97 29 185q0 18 6.5 31t25.5 13
q15 0 23.5 -11.5t8.5 -27.5z" />
    <glyph glyph-name="cent" unicode="&#xa2;" horiz-adv-x="450" 
d="M355 645q0 -31 -42.5 -53.5t-87.5 -22.5q-44 0 -87 23t-43 53q0 12 7 21t21 9q8 0 14 -3.5t13 -10.5q16 -16 30 -24q21 -12 45 -12q23 0 41.5 10.5t33.5 25.5q4 4 10 9t17 5q14 0 21 -9t7 -21zM443 444q-15 -121 -82 -276q-80 -185 -205 -340q-7 -8 -13 -12.5t-16 -4.5
q-30 0 -30 26q0 9 3.5 16t10.5 16q12 16 31 41q25 34 52 76q-79 108 -125 213t-60 214q-2 23 -3 34t-1 22q0 18 4.5 30t23.5 12q14 0 23 -9t9 -27q10 -106 34 -182q40 -127 131 -251q77 127 115 248q24 76 41 187q3 15 6 21q8 13 25 13q15 0 21.5 -10.5t6.5 -29.5v-13
q-2 -10 -2 -14z" />
    <glyph glyph-name="cent" unicode="&#x45e;" horiz-adv-x="450" 
d="M355 645q0 -31 -42.5 -53.5t-87.5 -22.5q-44 0 -87 23t-43 53q0 12 7 21t21 9q8 0 14 -3.5t13 -10.5q16 -16 30 -24q21 -12 45 -12q23 0 41.5 10.5t33.5 25.5q4 4 10 9t17 5q14 0 21 -9t7 -21zM443 444q-15 -121 -82 -276q-80 -185 -205 -340q-7 -8 -13 -12.5t-16 -4.5
q-30 0 -30 26q0 9 3.5 16t10.5 16q12 16 31 41q25 34 52 76q-79 108 -125 213t-60 214q-2 23 -3 34t-1 22q0 18 4.5 30t23.5 12q14 0 23 -9t9 -27q10 -106 34 -182q40 -127 131 -251q77 127 115 248q24 76 41 187q3 15 6 21q8 13 25 13q15 0 21.5 -10.5t6.5 -29.5v-13
q-2 -10 -2 -14z" />
    <glyph glyph-name="sterling" unicode="&#xa3;" horiz-adv-x="325" 
d="M285 225q0 -93 -30 -145q-51 -87 -183 -87q-38 0 -74 5.5t-63 19.5q-14 7 -23 16q-12 12 -12 28q0 11 3.5 18.5t14.5 12.5q8 2 12 2q8 0 18.5 -4.5t16.5 -7.5q45 -22 113 -22q90 0 122 64q19 39 19 115v423q0 17 9 27t24 10q14 0 23.5 -9.5t9.5 -27.5v-438z" />
    <glyph glyph-name="sterling" unicode="&#x408;" horiz-adv-x="325" 
d="M285 225q0 -93 -30 -145q-51 -87 -183 -87q-38 0 -74 5.5t-63 19.5q-14 7 -23 16q-12 12 -12 28q0 11 3.5 18.5t14.5 12.5q8 2 12 2q8 0 18.5 -4.5t16.5 -7.5q45 -22 113 -22q90 0 122 64q19 39 19 115v423q0 17 9 27t24 10q14 0 23.5 -9.5t9.5 -27.5v-438z" />
    <glyph glyph-name="currency" unicode="&#xa4;" horiz-adv-x="696" 
d="M656 28q0 -10 -6 -18.5t-22 -8.5t-30 14l-72 74q-42 -35 -93 -51q-41 -13 -85 -13q-43 0 -84 13q-52 16 -94 51l-73 -75q-5 -5 -8 -7q-10 -9 -20 -9t-18.5 7.5t-8.5 20.5q0 8 2 13t13 17l73 75q-31 38 -45.5 83t-14.5 89q0 47 15.5 92t46.5 84l-76 73q-4 3 -7 7
q-9 11 -9 21t7.5 18.5t20.5 8.5q10 0 16 -3.5t14 -11.5l73 -75q41 35 87 49.5t90 14.5q45 0 84 -12q50 -16 93 -52l74 77q3 4 7 7q11 9 21 9t18.5 -6t8.5 -22t-14 -30l-76 -73q23 -28 37 -60q25 -55 25 -116q0 -46 -14 -89.5t-46 -82.5l74 -75q3 -4 7 -8q9 -10 9 -20z
M571 303q0 92 -65 158t-158 66t-158 -65t-65 -159q0 -92 64.5 -157.5t158.5 -65.5q95 0 159 65t64 158z" />
    <glyph glyph-name="yen" unicode="&#xa5;" horiz-adv-x="406" 
d="M431 671q0 -29 -35 -29h-289v-605q0 -16 -10 -26.5t-24 -10.5t-23.5 9.5t-9.5 27.5v626q0 37 33 37h292v43q0 17 9 27t24 10q14 0 23.5 -9.5t9.5 -27.5v-72z" />
    <glyph glyph-name="yen" unicode="&#x490;" horiz-adv-x="406" 
d="M431 671q0 -29 -35 -29h-289v-605q0 -16 -10 -26.5t-24 -10.5t-23.5 9.5t-9.5 27.5v626q0 37 33 37h292v43q0 17 9 27t24 10q14 0 23.5 -9.5t9.5 -27.5v-72z" />
    <glyph glyph-name="brokenbar" unicode="&#xa6;" horiz-adv-x="80" 
d="M75 423q0 -35 -35 -35t-35 35v273q0 15 10 25t25 10q35 0 35 -35v-273zM75 -154q0 -35 -35 -35t-35 35v273q0 15 10 25t25 10q35 0 35 -35v-273z" />
    <glyph glyph-name="section" unicode="&#xa7;" horiz-adv-x="515" 
d="M485 329q0 -32 -15 -65q-10 -22 -31 -51q20 -20 27 -49q4 -16 4 -37q0 -78 -56 -109q-33 -18 -80 -18h-269q-16 0 -25.5 7.5t-9.5 21.5q0 9 5 16q9 13 30 13h232q46 0 65 7q38 14 38 59q0 30 -19 48q-14 14 -52 29l-190 80q-39 16 -60 38q-34 35 -34 88q0 35 17 66t43 52
q-12 12 -18.5 29t-6.5 35q0 42 20 68q33 43 110 43h198q16 0 25.5 -7.5t9.5 -21.5q0 -9 -5 -16q-9 -13 -30 -13h-203q-32 0 -43.5 -13t-11.5 -34q0 -23 17 -38q10 -9 33 -19l187 -79q56 -24 77 -56.5t21 -73.5zM415 318q0 29 -13 48.5t-55 37.5l-194 84q-20 -20 -29 -42
t-9 -39q0 -27 16 -43q11 -11 34 -21l220 -94q19 30 24.5 41t5.5 28z" />
    <glyph glyph-name="dieresis" unicode="&#xa8;" horiz-adv-x="464" 
d="M367 803q0 -57 -37 -57q-14 0 -23 11q-13 15 -13 46q0 55 36 55q18 0 27.5 -15.5t9.5 -39.5zM203 803q0 -57 -37 -57q-14 0 -23 11q-13 15 -13 46q0 55 36 55q18 0 27.5 -15.5t9.5 -39.5zM454 29q0 -9 -5 -16q-9 -13 -30 -13h-337q-30 0 -38 26q-4 14 -4 28v602
q0 44 44 44h335q16 0 25.5 -7.5t9.5 -21.5q0 -9 -5 -16q-9 -13 -30 -13h-313v-131h313q16 0 25.5 -7.5t9.5 -21.5q0 -9 -5 -16q-9 -13 -30 -13h-313v-395h313q16 0 25.5 -7.5t9.5 -21.5z" />
    <glyph glyph-name="dieresis" unicode="&#x401;" horiz-adv-x="464" 
d="M367 803q0 -57 -37 -57q-14 0 -23 11q-13 15 -13 46q0 55 36 55q18 0 27.5 -15.5t9.5 -39.5zM203 803q0 -57 -37 -57q-14 0 -23 11q-13 15 -13 46q0 55 36 55q18 0 27.5 -15.5t9.5 -39.5zM454 29q0 -9 -5 -16q-9 -13 -30 -13h-337q-30 0 -38 26q-4 14 -4 28v602
q0 44 44 44h335q16 0 25.5 -7.5t9.5 -21.5q0 -9 -5 -16q-9 -13 -30 -13h-313v-131h313q16 0 25.5 -7.5t9.5 -21.5q0 -9 -5 -16q-9 -13 -30 -13h-313v-395h313q16 0 25.5 -7.5t9.5 -21.5z" />
    <glyph glyph-name="copyright" unicode="&#xa9;" horiz-adv-x="780" 
d="M750 350q0 -150 -105 -255t-255 -105q-152 0 -256 105t-104 255t104 255t256 105q148 0 254 -105t106 -255zM684 350q0 127 -87 217t-207 90q-123 0 -208.5 -89.5t-85.5 -217.5q0 -126 85.5 -216.5t208.5 -90.5q120 0 207 90t87 217zM536 186q0 -24 -28 -27t-54 -3
q-120 0 -187 71q-60 63 -60 155q0 77 45 118t121 41h120q27 0 27 -26q0 -11 -7 -19t-20 -8h-101q-52 0 -79 -15q-46 -26 -46 -97q0 -64 41 -109q51 -56 151 -56h27l20 1q14 0 22 -7t8 -19z" />
    <glyph glyph-name="ordfeminine" unicode="&#xaa;" horiz-adv-x="551" 
d="M541 28q0 -17 -11.5 -24t-27 -9t-30.5 -2h-23q-191 0 -313 130q-116 123 -116 300q0 132 75.5 204.5t202.5 72.5h204q16 0 25.5 -7.5t9.5 -21.5q0 -9 -5 -16q-9 -13 -30 -13h-176q-86 0 -136 -25q-87 -43 -97 -160h408q16 0 25.5 -7.5t9.5 -21.5q0 -9 -5 -16
q-9 -13 -30 -13h-411q0 -160 120 -253q109 -85 271 -85h15q23 0 34 -5.5t11 -27.5z" />
    <glyph glyph-name="ordfeminine" unicode="&#x404;" horiz-adv-x="551" 
d="M541 28q0 -17 -11.5 -24t-27 -9t-30.5 -2h-23q-191 0 -313 130q-116 123 -116 300q0 132 75.5 204.5t202.5 72.5h204q16 0 25.5 -7.5t9.5 -21.5q0 -9 -5 -16q-9 -13 -30 -13h-176q-86 0 -136 -25q-87 -43 -97 -160h408q16 0 25.5 -7.5t9.5 -21.5q0 -9 -5 -16
q-9 -13 -30 -13h-411q0 -160 120 -253q109 -85 271 -85h15q23 0 34 -5.5t11 -27.5z" />
    <glyph glyph-name="guillemotleft" unicode="&#xab;" horiz-adv-x="374" 
d="M334 464q0 -8 -6 -24l-48 -120q-4 -8 -4 -14q0 -5 4 -14l48 -120q6 -15 6 -26q0 -25 -24 -25q-8 0 -13.5 3.5t-14.5 19.5l-77 134q-8 14 -8 28t8 28l77 134q8 14 10 16q6 7 18 7q24 0 24 -27zM177 464q0 -8 -6 -24l-48 -120q-4 -8 -4 -14q0 -5 4 -14l48 -120q6 -15 6 -26
q0 -25 -24 -25q-8 0 -13.5 3.5t-14.5 19.5l-77 134q-8 14 -8 28t8 28l77 134q8 14 10 16q6 7 18 7q24 0 24 -27z" />
    <glyph glyph-name="logicalnot" unicode="&#xac;" horiz-adv-x="476" 
d="M456 292q0 -32 -30 -32t-30 32v61h-345q-13 0 -22 7t-9 20q0 17 11.5 22t22.5 5h368q12 0 19 -3q15 -7 15 -24v-88z" />
    <glyph glyph-name="minus" unicode="&#xad;" horiz-adv-x="378" 
d="M318 324q0 -9 -5 -16q-9 -13 -30 -13h-188q-16 0 -25.5 7.5t-9.5 21.5q0 9 5 16q9 13 30 13h188q16 0 25.5 -7.5t9.5 -21.5z" />
    <glyph glyph-name="registered" unicode="&#xae;" horiz-adv-x="780" 
d="M750 350q0 -150 -105 -255t-255 -105q-152 0 -256 105t-104 255t104 255t256 105q148 0 254 -105t106 -255zM684 350q0 127 -87 217t-207 90q-123 0 -208.5 -89.5t-85.5 -217.5q0 -126 85.5 -216.5t208.5 -90.5q120 0 207 90t87 217zM557 189q0 -19 -8 -27t-18 -8
t-18.5 6t-8.5 24q-8 96 -53 153q-50 64 -137 64v-218q0 -14 -9.5 -21.5t-17.5 -7.5q-9 0 -18 7.5t-9 21.5v338q0 29 27 29h150q48 0 73 -27q21 -23 21 -54q0 -23 -13.5 -45t-38.5 -43q38 -37 58 -90t20 -102zM475 462q0 16 -6 25q-10 14 -35 14h-120v-49q28 0 62 -10.5
t65 -30.5q14 9 24 23t10 28z" />
    <glyph glyph-name="macron" unicode="&#xaf;" horiz-adv-x="164" 
d="M184 803q0 -57 -37 -57q-14 0 -23 11q-13 15 -13 46q0 55 36 55q18 0 27.5 -15.5t9.5 -39.5zM53 803q0 -57 -37 -57q-14 0 -23 11q-13 15 -13 46q0 55 36 55q18 0 27.5 -15.5t9.5 -39.5zM115 37q0 -17 -9 -27t-24 -10q-14 0 -23.5 9.5t-9.5 27.5v626q0 17 9 27t24 10
q14 0 23.5 -9.5t9.5 -27.5v-626z" />
    <glyph glyph-name="macron" unicode="&#x407;" horiz-adv-x="164" 
d="M184 803q0 -57 -37 -57q-14 0 -23 11q-13 15 -13 46q0 55 36 55q18 0 27.5 -15.5t9.5 -39.5zM53 803q0 -57 -37 -57q-14 0 -23 11q-13 15 -13 46q0 55 36 55q18 0 27.5 -15.5t9.5 -39.5zM115 37q0 -17 -9 -27t-24 -10q-14 0 -23.5 9.5t-9.5 27.5v626q0 17 9 27t24 10
q14 0 23.5 -9.5t9.5 -27.5v-626z" />
    <glyph glyph-name="degree" unicode="&#xb0;" horiz-adv-x="280" 
d="M240 597q0 -55 -32 -86q-28 -27 -70 -27t-70 34t-28 87q0 45 28 75t73 30t72 -32t27 -81zM192 597q0 31 -14.5 45.5t-37.5 14.5q-24 0 -38 -15t-14 -42t12.5 -45t37.5 -18q29 0 43 20q11 16 11 40z" />
    <glyph glyph-name="plusminus" unicode="&#xb1;" horiz-adv-x="476" 
d="M456 450q0 -16 -14 -23q-9 -4 -17 -4h-160v-110q0 -13 -7 -22t-20 -9q-17 0 -22 11.5t-5 22.5v107h-160q-13 0 -22 7t-9 20q0 17 11.5 22t22.5 5h157v106q0 12 3 19q7 15 24 15q16 0 23 -14q4 -9 4 -17v-109h157q12 0 19 -3q15 -7 15 -24zM456 200q0 -16 -14 -23
q-9 -4 -17 -4h-374q-13 0 -22 7t-9 20q0 17 11.5 22t22.5 5h368q12 0 19 -3q15 -7 15 -24z" />
    <glyph glyph-name="twosuperior" unicode="&#xb2;" horiz-adv-x="146" 
d="M106 37q0 -17 -9 -27t-24 -10q-14 0 -23.5 9.5t-9.5 27.5v626q0 17 9 27t24 10q14 0 23.5 -9.5t9.5 -27.5v-626z" />
    <glyph glyph-name="twosuperior" unicode="&#x406;" horiz-adv-x="146" 
d="M106 37q0 -17 -9 -27t-24 -10q-14 0 -23.5 9.5t-9.5 27.5v626q0 17 9 27t24 10q14 0 23.5 -9.5t9.5 -27.5v-626z" />
    <glyph glyph-name="threesuperior" unicode="&#xb3;" horiz-adv-x="148" 
d="M108 611q0 -21 -5 -32q-9 -19 -30 -19q-17 0 -25 14.5t-8 36.5t8 36.5t25 14.5q18 0 26.5 -13.5t8.5 -37.5zM104 32q0 -32 -30 -32t-30 32v447q0 32 30 32t30 -32v-447z" />
    <glyph glyph-name="threesuperior" unicode="&#x456;" horiz-adv-x="148" 
d="M108 611q0 -21 -5 -32q-9 -19 -30 -19q-17 0 -25 14.5t-8 36.5t8 36.5t25 14.5q18 0 26.5 -13.5t8.5 -37.5zM104 32q0 -32 -30 -32t-30 32v447q0 32 30 32t30 -32v-447z" />
    <glyph glyph-name="acute" unicode="&#xb4;" horiz-adv-x="300" 
d="M319 484q0 -27 -28 -27h-191v-425q0 -32 -30 -32t-30 32v447q0 32 30 32h189v41q0 32 30 32t30 -32v-68z" />
    <glyph glyph-name="acute" unicode="&#x491;" horiz-adv-x="300" 
d="M319 484q0 -27 -28 -27h-191v-425q0 -32 -30 -32t-30 32v447q0 32 30 32h189v41q0 32 30 32t30 -32v-68z" />
    <glyph glyph-name="mu" unicode="&#xb5;" horiz-adv-x="495" 
d="M455 32q0 -32 -30 -32t-30 32v34q-30 -33 -73.5 -52t-95.5 -19q-47 0 -76 17.5t-50 51.5v-221q0 -32 -30 -32t-30 32v636q0 32 30 32t30 -32v-284q0 -67 37.5 -105.5t97.5 -38.5q66 0 110 37q50 43 50 120v271q0 32 30 32t30 -32v-447z" />
    <glyph glyph-name="paragraph" unicode="&#xb6;" horiz-adv-x="528" 
d="M488 -152q0 -17 -9 -27t-24 -10q-14 0 -23.5 9.5t-9.5 27.5v815q0 17 9 27t24 10q14 0 23.5 -9.5t9.5 -27.5v-815zM345 -152q0 -17 -9 -27t-24 -10q-14 0 -23.5 9.5t-9.5 27.5v433q-127 0 -190 71q-49 55 -49 134q0 75 39 127q65 87 223 87q18 0 26 -4q17 -8 17 -33v-815
z" />
    <glyph glyph-name="cedilla" unicode="&#xb8;" 
d="M383 611q0 -21 -5 -32q-9 -19 -30 -19q-17 0 -25 14.5t-8 36.5t8 36.5t25 14.5q18 0 26.5 -13.5t8.5 -37.5zM210 611q0 -21 -5 -32q-9 -19 -30 -19q-17 0 -25 14.5t-8 36.5t8 36.5t25 14.5q18 0 26.5 -13.5t8.5 -37.5zM480 300q0 -19 -4 -27q-8 -16 -29 -16h-363
q0 -101 58.5 -153t164.5 -52h43q18 3 27 4l36 4q13 2 20 2.5t14 0.5q14 0 21.5 -5.5t7.5 -20.5q0 -16 -15 -24q-9 -5 -27 -7l-61 -6q-36 -4 -80 -4q-132 0 -202.5 68.5t-70.5 187.5q0 118 68.5 190.5t177.5 72.5q101 0 160 -67q54 -61 54 -148zM416 311q0 67 -44.5 107.5
t-108.5 40.5q-65 0 -112.5 -41t-60.5 -107h326z" />
    <glyph glyph-name="cedilla" unicode="&#x451;" 
d="M383 611q0 -21 -5 -32q-9 -19 -30 -19q-17 0 -25 14.5t-8 36.5t8 36.5t25 14.5q18 0 26.5 -13.5t8.5 -37.5zM210 611q0 -21 -5 -32q-9 -19 -30 -19q-17 0 -25 14.5t-8 36.5t8 36.5t25 14.5q18 0 26.5 -13.5t8.5 -37.5zM480 300q0 -19 -4 -27q-8 -16 -29 -16h-363
q0 -101 58.5 -153t164.5 -52h43q18 3 27 4l36 4q13 2 20 2.5t14 0.5q14 0 21.5 -5.5t7.5 -20.5q0 -16 -15 -24q-9 -5 -27 -7l-61 -6q-36 -4 -80 -4q-132 0 -202.5 68.5t-70.5 187.5q0 118 68.5 190.5t177.5 72.5q101 0 160 -67q54 -61 54 -148zM416 311q0 67 -44.5 107.5
t-108.5 40.5q-65 0 -112.5 -41t-60.5 -107h326z" />
    <glyph glyph-name="onesuperior" unicode="&#xb9;" horiz-adv-x="881" 
d="M841 436q0 -71 -41 -117t-105 -46q-60 0 -100 49t-40 125q0 66 41.5 108.5t102.5 42.5q58 0 97 -39q45 -45 45 -123zM831 182q0 -9 -5 -16q-9 -13 -30 -13h-196q-16 0 -25.5 7.5t-9.5 21.5q0 9 5 16q9 13 30 13h196q16 0 25.5 -7.5t9.5 -21.5zM503 37q0 -17 -9 -27
t-24 -10q-14 0 -23.5 9.5t-9.5 27.5v132q0 136 -99 262q-90 115 -232 189v-583q0 -17 -9 -27t-24 -10q-14 0 -23.5 9.5t-9.5 27.5v626q0 16 9.5 26.5t25.5 10.5q55 0 175 -93q129 -100 187 -203v259q0 17 9 27t24 10q14 0 23.5 -9.5t9.5 -27.5v-626zM787 436q0 45 -23.5 73
t-65.5 28q-41 0 -64.5 -26.5t-23.5 -70.5q0 -43 18 -71q22 -35 66 -35q40 0 66.5 27.5t26.5 74.5z" />
    <glyph glyph-name="onesuperior" unicode="&#x2116;" horiz-adv-x="881" 
d="M841 436q0 -71 -41 -117t-105 -46q-60 0 -100 49t-40 125q0 66 41.5 108.5t102.5 42.5q58 0 97 -39q45 -45 45 -123zM831 182q0 -9 -5 -16q-9 -13 -30 -13h-196q-16 0 -25.5 7.5t-9.5 21.5q0 9 5 16q9 13 30 13h196q16 0 25.5 -7.5t9.5 -21.5zM503 37q0 -17 -9 -27
t-24 -10q-14 0 -23.5 9.5t-9.5 27.5v132q0 136 -99 262q-90 115 -232 189v-583q0 -17 -9 -27t-24 -10q-14 0 -23.5 9.5t-9.5 27.5v626q0 16 9.5 26.5t25.5 10.5q55 0 175 -93q129 -100 187 -203v259q0 17 9 27t24 10q14 0 23.5 -9.5t9.5 -27.5v-626zM787 436q0 45 -23.5 73
t-65.5 28q-41 0 -64.5 -26.5t-23.5 -70.5q0 -43 18 -71q22 -35 66 -35q40 0 66.5 27.5t26.5 74.5z" />
    <glyph glyph-name="ordmasculine" unicode="&#xba;" horiz-adv-x="451" 
d="M449 33q0 -22 -34 -31q-24 -6 -60 -6q-149 0 -244 89q-91 85 -91 209q0 91 50 149q59 68 173 68h155q12 0 19 -3q15 -7 15 -24q0 -16 -14 -23q-9 -4 -17 -4h-123q-79 0 -123 -20q-71 -32 -71 -114h300q13 0 23.5 -5t10.5 -22q0 -11 -5 -17q-8 -10 -26 -10h-303
q17 -103 93 -162q71 -55 168 -55q24 0 54 5l19 2q16 0 23.5 -8t7.5 -18z" />
    <glyph glyph-name="ordmasculine" unicode="&#x454;" horiz-adv-x="451" 
d="M449 33q0 -22 -34 -31q-24 -6 -60 -6q-149 0 -244 89q-91 85 -91 209q0 91 50 149q59 68 173 68h155q12 0 19 -3q15 -7 15 -24q0 -16 -14 -23q-9 -4 -17 -4h-123q-79 0 -123 -20q-71 -32 -71 -114h300q13 0 23.5 -5t10.5 -22q0 -11 -5 -17q-8 -10 -26 -10h-303
q17 -103 93 -162q71 -55 168 -55q24 0 54 5l19 2q16 0 23.5 -8t7.5 -18z" />
    <glyph glyph-name="guillemotright" unicode="&#xbb;" horiz-adv-x="374" 
d="M334 306q0 -14 -8 -28l-77 -134q-8 -14 -10 -16q-6 -7 -18 -7q-10 0 -17 6t-7 20q0 10 6 25l48 120q4 9 4 15q0 5 -4 13l-48 120q-6 16 -6 24q0 27 24 27q8 0 13.5 -3.5t14.5 -19.5l77 -134q8 -14 8 -28zM177 306q0 -14 -8 -28l-77 -134q-8 -14 -10 -16q-6 -7 -18 -7
q-24 0 -24 27q0 8 6 24l48 120q4 8 4 14q0 5 -4 14l-48 120q-6 15 -6 26q0 25 24 25q8 0 13.5 -3.5t14.5 -19.5l77 -134q8 -14 8 -28z" />
    <glyph glyph-name="onequarter" unicode="&#xbc;" horiz-adv-x="168" 
d="M128 611q0 -21 -5 -32q-9 -19 -30 -19q-17 0 -25 14.5t-8 36.5t8 36.5t25 14.5q18 0 26.5 -13.5t8.5 -37.5zM126 18q0 -106 -50.5 -162.5t-147.5 -56.5q-15 0 -30.5 1t-31.5 4t-23 8q-13 9 -13 24q0 14 8.5 21.5t19.5 7.5q6 0 19.5 -4t24.5 -5t27 -1q51 0 84 25
q53 40 53 138v461q0 32 30 32t30 -32v-461z" />
    <glyph glyph-name="onequarter" unicode="&#x458;" horiz-adv-x="168" 
d="M128 611q0 -21 -5 -32q-9 -19 -30 -19q-17 0 -25 14.5t-8 36.5t8 36.5t25 14.5q18 0 26.5 -13.5t8.5 -37.5zM126 18q0 -106 -50.5 -162.5t-147.5 -56.5q-15 0 -30.5 1t-31.5 4t-23 8q-13 9 -13 24q0 14 8.5 21.5t19.5 7.5q6 0 19.5 -4t24.5 -5t27 -1q51 0 84 25
q53 40 53 138v461q0 32 30 32t30 -32v-461z" />
    <glyph glyph-name="onehalf" unicode="&#xbd;" horiz-adv-x="566" 
d="M553 265q0 -106 -66 -180q-75 -85 -205 -85h-234q-16 0 -25.5 7.5t-9.5 21.5q0 9 5 16q9 13 30 13h221q105 0 163 61q51 54 51 138q0 76 -53 114q-34 24 -104 37l-117 22q-100 19 -132 38q-51 30 -51 99q0 56 31 90q39 43 118 43h263q16 0 25.5 -7.5t9.5 -21.5
q0 -9 -5 -16q-9 -13 -30 -13h-243q-41 0 -60 -8q-39 -16 -39 -64q0 -39 32 -55q19 -10 82 -20l92 -15q116 -19 168 -51q83 -52 83 -164z" />
    <glyph glyph-name="onehalf" unicode="&#x405;" horiz-adv-x="566" 
d="M553 265q0 -106 -66 -180q-75 -85 -205 -85h-234q-16 0 -25.5 7.5t-9.5 21.5q0 9 5 16q9 13 30 13h221q105 0 163 61q51 54 51 138q0 76 -53 114q-34 24 -104 37l-117 22q-100 19 -132 38q-51 30 -51 99q0 56 31 90q39 43 118 43h263q16 0 25.5 -7.5t9.5 -21.5
q0 -9 -5 -16q-9 -13 -30 -13h-243q-41 0 -60 -8q-39 -16 -39 -64q0 -39 32 -55q19 -10 82 -20l92 -15q116 -19 168 -51q83 -52 83 -164z" />
    <glyph glyph-name="threequarters" unicode="&#xbe;" horiz-adv-x="472" 
d="M462 180q0 -80 -51 -130t-129 -50h-241q-13 0 -22 7t-9 20q0 17 11.5 22t22.5 5h241q52 0 82.5 30.5t30.5 87.5t-35 83q-22 16 -61 22l-177 25q-51 8 -77.5 34.5t-26.5 68.5q0 53 32.5 79.5t92.5 26.5h236q13 0 22 -7t9 -20q0 -17 -11.5 -22t-22.5 -5h-233q-28 0 -39 -5
q-22 -10 -22 -37q0 -21 12.5 -35.5t46.5 -19.5l179 -26q68 -9 103.5 -49.5t35.5 -104.5z" />
    <glyph glyph-name="threequarters" unicode="&#x455;" horiz-adv-x="472" 
d="M462 180q0 -80 -51 -130t-129 -50h-241q-13 0 -22 7t-9 20q0 17 11.5 22t22.5 5h241q52 0 82.5 30.5t30.5 87.5t-35 83q-22 16 -61 22l-177 25q-51 8 -77.5 34.5t-26.5 68.5q0 53 32.5 79.5t92.5 26.5h236q13 0 22 -7t9 -20q0 -17 -11.5 -22t-22.5 -5h-233q-28 0 -39 -5
q-22 -10 -22 -37q0 -21 12.5 -35.5t46.5 -19.5l179 -26q68 -9 103.5 -49.5t35.5 -104.5z" />
    <glyph glyph-name="questiondown" unicode="&#xbf;" horiz-adv-x="190" 
d="M180 609q0 -21 -5 -32q-9 -19 -30 -19q-17 0 -25 14.5t-8 36.5t8 36.5t25 14.5q18 0 26.5 -13.5t8.5 -37.5zM78 610q0 -21 -5 -32q-9 -19 -30 -19q-17 0 -25 14.5t-8 36.5t8 36.5t25 14.5q18 0 26.5 -13.5t8.5 -37.5zM125 32q0 -32 -30 -32t-30 32v447q0 32 30 32t30 -32
v-447z" />
    <glyph glyph-name="questiondown" unicode="&#x457;" horiz-adv-x="190" 
d="M180 609q0 -21 -5 -32q-9 -19 -30 -19q-17 0 -25 14.5t-8 36.5t8 36.5t25 14.5q18 0 26.5 -13.5t8.5 -37.5zM78 610q0 -21 -5 -32q-9 -19 -30 -19q-17 0 -25 14.5t-8 36.5t8 36.5t25 14.5q18 0 26.5 -13.5t8.5 -37.5zM125 32q0 -32 -30 -32t-30 32v447q0 32 30 32t30 -32
v-447z" />
    <glyph glyph-name="Agrave" unicode="&#xc0;" horiz-adv-x="592" 
d="M588 85q2 -15 3.5 -27t1.5 -20q0 -19 -6 -28.5t-23 -9.5t-24 8.5t-9 28.5l-5 35q-16 112 -116 194q-110 90 -262 90q-33 -85 -55 -171q-18 -69 -29 -145q-2 -13 -4 -19q-8 -21 -30 -21q-17 0 -23.5 11t-6.5 30q0 16 2 28.5t3 20.5q23 139 91.5 314.5t139.5 269.5
q11 15 20 22q14 11 33 11q20 0 35 -10q10 -7 21 -22q80 -101 156 -293q71 -178 87 -297zM464 298q-41 116 -90 208q-38 72 -85 136q-30 -46 -52 -87q-32 -60 -63 -141q66 0 132 -22q88 -29 158 -94z" />
    <glyph glyph-name="Agrave" unicode="&#x410;" horiz-adv-x="592" 
d="M588 85q2 -15 3.5 -27t1.5 -20q0 -19 -6 -28.5t-23 -9.5t-24 8.5t-9 28.5l-5 35q-16 112 -116 194q-110 90 -262 90q-33 -85 -55 -171q-18 -69 -29 -145q-2 -13 -4 -19q-8 -21 -30 -21q-17 0 -23.5 11t-6.5 30q0 16 2 28.5t3 20.5q23 139 91.5 314.5t139.5 269.5
q11 15 20 22q14 11 33 11q20 0 35 -10q10 -7 21 -22q80 -101 156 -293q71 -178 87 -297zM464 298q-41 116 -90 208q-38 72 -85 136q-30 -46 -52 -87q-32 -60 -63 -141q66 0 132 -22q88 -29 158 -94z" />
    <glyph glyph-name="Aacute" unicode="&#xc1;" horiz-adv-x="576" 
d="M561 203q0 -83 -49 -138q-57 -65 -162 -65h-277q-33 0 -33 37v626q0 37 33 37h383q16 0 25.5 -7.5t9.5 -21.5q0 -9 -5 -16q-9 -13 -30 -13h-350v-122q199 0 329 -94q126 -91 126 -223zM491 201q0 100 -107 176q-113 80 -278 80v-399h225q79 0 119.5 39.5t40.5 103.5z" />
    <glyph glyph-name="Aacute" unicode="&#x411;" horiz-adv-x="576" 
d="M561 203q0 -83 -49 -138q-57 -65 -162 -65h-277q-33 0 -33 37v626q0 37 33 37h383q16 0 25.5 -7.5t9.5 -21.5q0 -9 -5 -16q-9 -13 -30 -13h-350v-122q199 0 329 -94q126 -91 126 -223zM491 201q0 100 -107 176q-113 80 -278 80v-399h225q79 0 119.5 39.5t40.5 103.5z" />
    <glyph glyph-name="Acircumflex" unicode="&#xc2;" horiz-adv-x="582" 
d="M562 203q0 -89 -57 -146t-149 -57h-278q-19 0 -28.5 9.5t-9.5 27.5v626q0 17 9 27t29 10h291q78 0 115 -45q31 -38 31 -100q0 -32 -14 -63q-18 -40 -60 -83q40 -27 68 -61q53 -65 53 -145zM445 560q0 35 -16 55q-22 27 -71 27h-251v-126q88 0 170 -27q46 -15 111 -49
q26 24 41.5 56.5t15.5 63.5zM492 199q0 104 -117 180.5t-268 76.5v-398h224q86 0 128 48q33 38 33 93z" />
    <glyph glyph-name="Acircumflex" unicode="&#x412;" horiz-adv-x="582" 
d="M562 203q0 -89 -57 -146t-149 -57h-278q-19 0 -28.5 9.5t-9.5 27.5v626q0 17 9 27t29 10h291q78 0 115 -45q31 -38 31 -100q0 -32 -14 -63q-18 -40 -60 -83q40 -27 68 -61q53 -65 53 -145zM445 560q0 35 -16 55q-22 27 -71 27h-251v-126q88 0 170 -27q46 -15 111 -49
q26 24 41.5 56.5t15.5 63.5zM492 199q0 104 -117 180.5t-268 76.5v-398h224q86 0 128 48q33 38 33 93z" />
    <glyph glyph-name="Atilde" unicode="&#xc3;" horiz-adv-x="406" 
d="M431 671q0 -9 -5 -16q-9 -13 -30 -13h-289v-605q0 -16 -10 -26.5t-24 -10.5t-23.5 9.5t-9.5 27.5v626q0 37 33 37h323q16 0 25.5 -7.5t9.5 -21.5z" />
    <glyph glyph-name="Atilde" unicode="&#x413;" horiz-adv-x="406" 
d="M431 671q0 -9 -5 -16q-9 -13 -30 -13h-289v-605q0 -16 -10 -26.5t-24 -10.5t-23.5 9.5t-9.5 27.5v626q0 37 33 37h323q16 0 25.5 -7.5t9.5 -21.5z" />
    <glyph glyph-name="Adieresis" unicode="&#xc4;" horiz-adv-x="639" 
d="M639 -127q0 -17 -9 -27t-24 -10q-14 0 -23.5 9.5t-9.5 27.5v127h-537v-127q0 -17 -9 -27t-24 -10q-14 0 -23.5 9.5t-9.5 27.5v130q0 33 18 46q13 9 39 9h23q0 286 63 448q48 122 129 168q46 26 104 26h178q22 0 30 -17q5 -11 5 -36v-589h31q33 0 43 -17q6 -10 6 -38v-130
zM493 58v584h-147q-82 0 -139 -109q-46 -89 -71 -239q-20 -122 -20 -236h377z" />
    <glyph glyph-name="Adieresis" unicode="&#x414;" horiz-adv-x="639" 
d="M639 -127q0 -17 -9 -27t-24 -10q-14 0 -23.5 9.5t-9.5 27.5v127h-537v-127q0 -17 -9 -27t-24 -10q-14 0 -23.5 9.5t-9.5 27.5v130q0 33 18 46q13 9 39 9h23q0 286 63 448q48 122 129 168q46 26 104 26h178q22 0 30 -17q5 -11 5 -36v-589h31q33 0 43 -17q6 -10 6 -38v-130
zM493 58v584h-147q-82 0 -139 -109q-46 -89 -71 -239q-20 -122 -20 -236h377z" />
    <glyph glyph-name="Aring" unicode="&#xc5;" horiz-adv-x="464" 
d="M454 29q0 -9 -5 -16q-9 -13 -30 -13h-337q-30 0 -38 26q-4 14 -4 28v602q0 44 44 44h335q16 0 25.5 -7.5t9.5 -21.5q0 -9 -5 -16q-9 -13 -30 -13h-313v-131h313q16 0 25.5 -7.5t9.5 -21.5q0 -9 -5 -16q-9 -13 -30 -13h-313v-395h313q16 0 25.5 -7.5t9.5 -21.5z" />
    <glyph glyph-name="Aring" unicode="&#x415;" horiz-adv-x="464" 
d="M454 29q0 -9 -5 -16q-9 -13 -30 -13h-337q-30 0 -38 26q-4 14 -4 28v602q0 44 44 44h335q16 0 25.5 -7.5t9.5 -21.5q0 -9 -5 -16q-9 -13 -30 -13h-313v-131h313q16 0 25.5 -7.5t9.5 -21.5q0 -9 -5 -16q-9 -13 -30 -13h-313v-395h313q16 0 25.5 -7.5t9.5 -21.5z" />
    <glyph glyph-name="AE" unicode="&#xc6;" horiz-adv-x="784" 
d="M771 39q0 -20 -7.5 -29.5t-22.5 -9.5q-18 0 -27 15q-4 7 -7 25q-27 222 -120 326q-64 72 -162 88v-417q0 -17 -9 -27t-24 -10q-14 0 -23.5 9.5t-9.5 27.5v417q-98 -16 -161 -87q-94 -105 -121 -327q-3 -17 -7 -25q-8 -15 -27 -15t-24.5 12t-5.5 27q0 105 47 220
q53 129 137 192q-56 31 -93.5 82t-49.5 106q-3 14 -3 23q0 38 32 38q14 0 21 -9q4 -5 9 -20q21 -66 45 -102q35 -53 97 -83q29 13 52.5 20t51.5 7v150q0 17 9 27t24 10q14 0 23.5 -9.5t9.5 -27.5v-150q27 0 51.5 -7t52.5 -20q60 29 96 83q26 39 46 102q5 14 10.5 21.5
t19.5 7.5q32 0 32 -39q0 -10 -3 -22q-12 -54 -49 -105t-94 -83q84 -63 137 -192q47 -115 47 -220z" />
    <glyph glyph-name="AE" unicode="&#x416;" horiz-adv-x="784" 
d="M771 39q0 -20 -7.5 -29.5t-22.5 -9.5q-18 0 -27 15q-4 7 -7 25q-27 222 -120 326q-64 72 -162 88v-417q0 -17 -9 -27t-24 -10q-14 0 -23.5 9.5t-9.5 27.5v417q-98 -16 -161 -87q-94 -105 -121 -327q-3 -17 -7 -25q-8 -15 -27 -15t-24.5 12t-5.5 27q0 105 47 220
q53 129 137 192q-56 31 -93.5 82t-49.5 106q-3 14 -3 23q0 38 32 38q14 0 21 -9q4 -5 9 -20q21 -66 45 -102q35 -53 97 -83q29 13 52.5 20t51.5 7v150q0 17 9 27t24 10q14 0 23.5 -9.5t9.5 -27.5v-150q27 0 51.5 -7t52.5 -20q60 29 96 83q26 39 46 102q5 14 10.5 21.5
t19.5 7.5q32 0 32 -39q0 -10 -3 -22q-12 -54 -49 -105t-94 -83q84 -63 137 -192q47 -115 47 -220z" />
    <glyph glyph-name="Ccedilla" unicode="&#xc7;" horiz-adv-x="531" 
d="M511 256q0 -100 -66 -170q-87 -93 -261 -93q-76 0 -139 15q-16 5 -21 8q-14 9 -14 24q0 17 10 23.5t26 6.5q11 0 18.5 -2t9.5 -2q58 -12 118 -12q117 0 185 57q64 53 64 134q0 70 -44 112t-117 42h-190q-16 0 -25.5 7.5t-9.5 21.5q0 9 5 16q9 13 30 13h167
q61 0 99.5 31.5t38.5 77.5q0 37 -28.5 56.5t-79.5 19.5h-222q-16 0 -25.5 7.5t-9.5 21.5q0 9 5 16q9 13 30 13h231q105 0 145 -52q24 -31 24 -81q0 -41 -26 -76t-70 -55q62 -16 102 -63.5t40 -116.5z" />
    <glyph glyph-name="Ccedilla" unicode="&#x417;" horiz-adv-x="531" 
d="M511 256q0 -100 -66 -170q-87 -93 -261 -93q-76 0 -139 15q-16 5 -21 8q-14 9 -14 24q0 17 10 23.5t26 6.5q11 0 18.5 -2t9.5 -2q58 -12 118 -12q117 0 185 57q64 53 64 134q0 70 -44 112t-117 42h-190q-16 0 -25.5 7.5t-9.5 21.5q0 9 5 16q9 13 30 13h167
q61 0 99.5 31.5t38.5 77.5q0 37 -28.5 56.5t-79.5 19.5h-222q-16 0 -25.5 7.5t-9.5 21.5q0 9 5 16q9 13 30 13h231q105 0 145 -52q24 -31 24 -81q0 -41 -26 -76t-70 -55q62 -16 102 -63.5t40 -116.5z" />
    <glyph glyph-name="Egrave" unicode="&#xc8;" horiz-adv-x="542" 
d="M502 37q0 -17 -9 -27t-24 -10q-14 0 -23.5 9.5t-9.5 27.5v590q-139 -77 -231 -196q-99 -128 -99 -250v-144q0 -17 -9 -27t-24 -10q-14 0 -23.5 9.5t-9.5 27.5v626q0 17 9 27t24 10q14 0 23.5 -9.5t9.5 -27.5v-271q65 115 190 215q116 93 172 93q16 0 25 -11t9 -26v-626z
" />
    <glyph glyph-name="Egrave" unicode="&#x418;" horiz-adv-x="542" 
d="M502 37q0 -17 -9 -27t-24 -10q-14 0 -23.5 9.5t-9.5 27.5v590q-139 -77 -231 -196q-99 -128 -99 -250v-144q0 -17 -9 -27t-24 -10q-14 0 -23.5 9.5t-9.5 27.5v626q0 17 9 27t24 10q14 0 23.5 -9.5t9.5 -27.5v-271q65 115 190 215q116 93 172 93q16 0 25 -11t9 -26v-626z
" />
    <glyph glyph-name="Eacute" unicode="&#xc9;" horiz-adv-x="542" 
d="M407 815q0 -30 -40 -57.5t-98 -27.5q-56 0 -97 28t-41 57q0 31 32 31q9 0 16 -6q3 -3 11 -14q14 -19 32 -29t47 -10q28 0 47 10.5t32 28.5q9 13 10 14q6 6 17 6q14 0 23 -9t9 -22zM502 37q0 -17 -9 -27t-24 -10q-14 0 -23.5 9.5t-9.5 27.5v590q-139 -77 -231 -196
q-99 -128 -99 -250v-144q0 -17 -9 -27t-24 -10q-14 0 -23.5 9.5t-9.5 27.5v626q0 17 9 27t24 10q14 0 23.5 -9.5t9.5 -27.5v-271q65 115 190 215q116 93 172 93q16 0 25 -11t9 -26v-626z" />
    <glyph glyph-name="Eacute" unicode="&#x419;" horiz-adv-x="542" 
d="M407 815q0 -30 -40 -57.5t-98 -27.5q-56 0 -97 28t-41 57q0 31 32 31q9 0 16 -6q3 -3 11 -14q14 -19 32 -29t47 -10q28 0 47 10.5t32 28.5q9 13 10 14q6 6 17 6q14 0 23 -9t9 -22zM502 37q0 -17 -9 -27t-24 -10q-14 0 -23.5 9.5t-9.5 27.5v590q-139 -77 -231 -196
q-99 -128 -99 -250v-144q0 -17 -9 -27t-24 -10q-14 0 -23.5 9.5t-9.5 27.5v626q0 17 9 27t24 10q14 0 23.5 -9.5t9.5 -27.5v-271q65 115 190 215q116 93 172 93q16 0 25 -11t9 -26v-626z" />
    <glyph glyph-name="Ecircumflex" unicode="&#xca;" horiz-adv-x="552" 
d="M539 37q0 -10 -1 -15q-5 -22 -29 -22q-18 0 -24.5 11t-8.5 29q-12 81 -36 148q-40 113 -108 177q-91 86 -226 86v-414q0 -17 -9 -27t-24 -10q-14 0 -23.5 9.5t-9.5 27.5v626q0 17 9 27t24 10q14 0 23.5 -9.5t9.5 -27.5v-152q36 0 72.5 -6.5t70.5 -18.5q83 25 133 90
q31 40 49 93q5 17 10.5 24t22.5 7q14 0 20.5 -9.5t6.5 -25.5q0 -10 -4 -28q-14 -57 -60.5 -107.5t-108.5 -78.5q109 -69 170 -201q51 -110 51 -213z" />
    <glyph glyph-name="Ecircumflex" unicode="&#x41a;" horiz-adv-x="552" 
d="M539 37q0 -10 -1 -15q-5 -22 -29 -22q-18 0 -24.5 11t-8.5 29q-12 81 -36 148q-40 113 -108 177q-91 86 -226 86v-414q0 -17 -9 -27t-24 -10q-14 0 -23.5 9.5t-9.5 27.5v626q0 17 9 27t24 10q14 0 23.5 -9.5t9.5 -27.5v-152q36 0 72.5 -6.5t70.5 -18.5q83 25 133 90
q31 40 49 93q5 17 10.5 24t22.5 7q14 0 20.5 -9.5t6.5 -25.5q0 -10 -4 -28q-14 -57 -60.5 -107.5t-108.5 -78.5q109 -69 170 -201q51 -110 51 -213z" />
    <glyph glyph-name="Edieresis" unicode="&#xcb;" horiz-adv-x="580" 
d="M565 39q0 -24 -16 -34q-5 -3 -16 -5q-16 0 -24 15q-4 9 -6 23q-11 96 -23 159q-25 131 -75 278q-56 167 -112 167h-6q-56 0 -112 -167q-35 -104 -60 -215t-38 -222q-2 -15 -5 -22q-8 -16 -25 -16q-15 3 -21 9q-11 11 -11 30q0 72 35 221t76 257q45 121 86 159
q26 24 69 24h18q43 0 68 -23q42 -39 87 -160q40 -108 75.5 -256t35.5 -222z" />
    <glyph glyph-name="Edieresis" unicode="&#x41b;" horiz-adv-x="580" 
d="M565 39q0 -24 -16 -34q-5 -3 -16 -5q-16 0 -24 15q-4 9 -6 23q-11 96 -23 159q-25 131 -75 278q-56 167 -112 167h-6q-56 0 -112 -167q-35 -104 -60 -215t-38 -222q-2 -15 -5 -22q-8 -16 -25 -16q-15 3 -21 9q-11 11 -11 30q0 72 35 221t76 257q45 121 86 159
q26 24 69 24h18q43 0 68 -23q42 -39 87 -160q40 -108 75.5 -256t35.5 -222z" />
    <glyph glyph-name="Igrave" unicode="&#xcc;" horiz-adv-x="676" 
d="M641 71v-13q0 -29 -6 -43.5t-26 -14.5q-19 0 -26 13t-7 31l-1 37q0 119 -9 224t-41 292q-41 -94 -82 -164q-67 -116 -105 -116q-45 0 -130 162q-31 59 -57 118q-29 -172 -39.5 -289t-10.5 -227l-1 -37q0 -18 -5 -28q-8 -16 -28 -16q-22 0 -27 18t-5 53q0 113 13 249
q18 183 53 332q6 24 12 33q10 15 32 15q17 0 27 -9q6 -6 13 -21q28 -63 56 -125q42 -84 100 -161q53 80 94 163q12 25 56 123q7 16 12 21q10 9 28 9q22 0 32 -14q6 -8 12 -34q34 -142 52 -332q14 -147 14 -249z" />
    <glyph glyph-name="Igrave" unicode="&#x41c;" horiz-adv-x="676" 
d="M641 71v-13q0 -29 -6 -43.5t-26 -14.5q-19 0 -26 13t-7 31l-1 37q0 119 -9 224t-41 292q-41 -94 -82 -164q-67 -116 -105 -116q-45 0 -130 162q-31 59 -57 118q-29 -172 -39.5 -289t-10.5 -227l-1 -37q0 -18 -5 -28q-8 -16 -28 -16q-22 0 -27 18t-5 53q0 113 13 249
q18 183 53 332q6 24 12 33q10 15 32 15q17 0 27 -9q6 -6 13 -21q28 -63 56 -125q42 -84 100 -161q53 80 94 163q12 25 56 123q7 16 12 21q10 9 28 9q22 0 32 -14q6 -8 12 -34q34 -142 52 -332q14 -147 14 -249z" />
    <glyph glyph-name="Iacute" unicode="&#xcd;" horiz-adv-x="555" 
d="M515 37q0 -17 -9 -27t-24 -10q-14 0 -23.5 9.5t-9.5 27.5v416h-343v-416q0 -17 -9 -27t-24 -10q-14 0 -23.5 9.5t-9.5 27.5v626q0 17 9 27t24 10q14 0 23.5 -9.5t9.5 -27.5v-152h343v152q0 17 9 27t24 10q14 0 23.5 -9.5t9.5 -27.5v-626z" />
    <glyph glyph-name="Iacute" unicode="&#x41d;" horiz-adv-x="555" 
d="M515 37q0 -17 -9 -27t-24 -10q-14 0 -23.5 9.5t-9.5 27.5v416h-343v-416q0 -17 -9 -27t-24 -10q-14 0 -23.5 9.5t-9.5 27.5v626q0 17 9 27t24 10q14 0 23.5 -9.5t9.5 -27.5v-152h343v152q0 17 9 27t24 10q14 0 23.5 -9.5t9.5 -27.5v-626z" />
    <glyph glyph-name="Icircumflex" unicode="&#xce;" horiz-adv-x="640" 
d="M620 354q0 -154 -73 -252q-81 -109 -227 -109q-145 0 -226 109q-74 99 -74 252q0 145 74 243q83 110 226 110q142 0 225 -110q75 -100 75 -243zM550 350q0 104 -43 181q-60 108 -190 108q-115 0 -175 -90q-52 -78 -52 -199q0 -120 51 -197q61 -92 180 -92q126 0 186 106
q43 76 43 183z" />
    <glyph glyph-name="Icircumflex" unicode="&#x41e;" horiz-adv-x="640" 
d="M620 354q0 -154 -73 -252q-81 -109 -227 -109q-145 0 -226 109q-74 99 -74 252q0 145 74 243q83 110 226 110q142 0 225 -110q75 -100 75 -243zM550 350q0 104 -43 181q-60 108 -190 108q-115 0 -175 -90q-52 -78 -52 -199q0 -120 51 -197q61 -92 180 -92q126 0 186 106
q43 76 43 183z" />
    <glyph glyph-name="Idieresis" unicode="&#xcf;" horiz-adv-x="555" 
d="M515 37q0 -17 -9 -27t-24 -10q-14 0 -23.5 9.5t-9.5 27.5v605h-343v-605q0 -17 -9 -27t-24 -10q-14 0 -23.5 9.5t-9.5 27.5v626q0 37 33 37h409q33 0 33 -37v-626z" />
    <glyph glyph-name="Idieresis" unicode="&#x41f;" horiz-adv-x="555" 
d="M515 37q0 -17 -9 -27t-24 -10q-14 0 -23.5 9.5t-9.5 27.5v605h-343v-605q0 -17 -9 -27t-24 -10q-14 0 -23.5 9.5t-9.5 27.5v626q0 37 33 37h409q33 0 33 -37v-626z" />
    <glyph glyph-name="Eth" unicode="&#xd0;" horiz-adv-x="512" 
d="M504 588q0 -74 -77 -136q-60 -48 -165 -86q-80 -29 -156 -43v-286q0 -17 -9 -27t-24 -10q-14 0 -23.5 9.5t-9.5 27.5v626q0 17 9 27t24 10h286q79 0 116 -37q29 -29 29 -75zM434 588q0 34 -33 47q-18 7 -50 7h-245v-256q143 30 230 80q98 56 98 122z" />
    <glyph glyph-name="Eth" unicode="&#x420;" horiz-adv-x="512" 
d="M504 588q0 -74 -77 -136q-60 -48 -165 -86q-80 -29 -156 -43v-286q0 -17 -9 -27t-24 -10q-14 0 -23.5 9.5t-9.5 27.5v626q0 17 9 27t24 10h286q79 0 116 -37q29 -29 29 -75zM434 588q0 34 -33 47q-18 7 -50 7h-245v-256q143 30 230 80q98 56 98 122z" />
    <glyph glyph-name="Ntilde" unicode="&#xd1;" horiz-adv-x="551" 
d="M541 28q0 -27 -34 -33q-12 -2 -48 -2q-184 0 -309 118q-130 122 -130 312q0 132 75.5 204.5t202.5 72.5h204q16 0 25.5 -7.5t9.5 -21.5q0 -9 -5 -16q-9 -13 -30 -13h-176q-119 0 -174 -51q-62 -58 -62 -174q0 -143 96 -244q109 -114 297 -114q31 0 38 -2q20 -6 20 -29z
" />
    <glyph glyph-name="Ntilde" unicode="&#x421;" horiz-adv-x="551" 
d="M541 28q0 -27 -34 -33q-12 -2 -48 -2q-184 0 -309 118q-130 122 -130 312q0 132 75.5 204.5t202.5 72.5h204q16 0 25.5 -7.5t9.5 -21.5q0 -9 -5 -16q-9 -13 -30 -13h-176q-119 0 -174 -51q-62 -58 -62 -174q0 -143 96 -244q109 -114 297 -114q31 0 38 -2q20 -6 20 -29z
" />
    <glyph glyph-name="Ograve" unicode="&#xd2;" horiz-adv-x="450" 
d="M470 671q0 -9 -5 -16q-9 -13 -30 -13h-177v-605q0 -17 -9 -27t-24 -10q-14 0 -23.5 9.5t-9.5 27.5v605h-177q-16 0 -25.5 7.5t-9.5 21.5q0 9 5 16q9 13 30 13h420q16 0 25.5 -7.5t9.5 -21.5z" />
    <glyph glyph-name="Ograve" unicode="&#x422;" horiz-adv-x="450" 
d="M470 671q0 -9 -5 -16q-9 -13 -30 -13h-177v-605q0 -17 -9 -27t-24 -10q-14 0 -23.5 9.5t-9.5 27.5v605h-177q-16 0 -25.5 7.5t-9.5 21.5q0 9 5 16q9 13 30 13h420q16 0 25.5 -7.5t9.5 -21.5z" />
    <glyph glyph-name="Oacute" unicode="&#xd3;" horiz-adv-x="516" 
d="M506 661l-1 -36q-11 -123 -64 -252q-44 -109 -113 -213q-52 -78 -121 -159q-7 -9 -12 -12q-9 -7 -20 -7q-15 0 -24.5 8.5t-9.5 25.5q0 10 6 20q3 5 12 15t36 44q36 46 60 76q-98 80 -162 194.5t-80 246.5l-3 49q0 18 5.5 28.5t22.5 10.5q22 0 30 -17q5 -10 7 -35
q13 -133 67.5 -240t149.5 -185q83 121 121 248q29 97 29 185q0 18 6.5 31t25.5 13q15 0 23.5 -11.5t8.5 -27.5z" />
    <glyph glyph-name="Oacute" unicode="&#x423;" horiz-adv-x="516" 
d="M506 661l-1 -36q-11 -123 -64 -252q-44 -109 -113 -213q-52 -78 -121 -159q-7 -9 -12 -12q-9 -7 -20 -7q-15 0 -24.5 8.5t-9.5 25.5q0 10 6 20q3 5 12 15t36 44q36 46 60 76q-98 80 -162 194.5t-80 246.5l-3 49q0 18 5.5 28.5t22.5 10.5q22 0 30 -17q5 -10 7 -35
q13 -133 67.5 -240t149.5 -185q83 121 121 248q29 97 29 185q0 18 6.5 31t25.5 13q15 0 23.5 -11.5t8.5 -27.5z" />
    <glyph glyph-name="Ocircumflex" unicode="&#xd4;" horiz-adv-x="740" 
d="M720 410q0 -123 -88.5 -207.5t-228.5 -84.5v-105q0 -17 -9 -27t-24 -10q-14 0 -23.5 9.5t-9.5 27.5v105q-140 0 -228.5 84.5t-88.5 207.5q0 88 48 148q57 71 164 71h105v49q0 17 9 27t24 10q14 0 23.5 -9.5t9.5 -27.5v-49h105q107 0 164 -71q48 -59 48 -148zM650 418
q0 94 -57 129q-39 24 -116 24h-74v-395q103 0 170 57q77 65 77 185zM337 176v395h-74q-76 0 -115 -24q-58 -36 -58 -129q0 -118 77 -184q68 -58 170 -58z" />
    <glyph glyph-name="Ocircumflex" unicode="&#x424;" horiz-adv-x="740" 
d="M720 410q0 -123 -88.5 -207.5t-228.5 -84.5v-105q0 -17 -9 -27t-24 -10q-14 0 -23.5 9.5t-9.5 27.5v105q-140 0 -228.5 84.5t-88.5 207.5q0 88 48 148q57 71 164 71h105v49q0 17 9 27t24 10q14 0 23.5 -9.5t9.5 -27.5v-49h105q107 0 164 -71q48 -59 48 -148zM650 418
q0 94 -57 129q-39 24 -116 24h-74v-395q103 0 170 57q77 65 77 185zM337 176v395h-74q-76 0 -115 -24q-58 -36 -58 -129q0 -118 77 -184q68 -58 170 -58z" />
    <glyph glyph-name="Otilde" unicode="&#xd5;" horiz-adv-x="578" 
d="M565 38q0 -20 -10 -29t-23 -9q-15 0 -21.5 10t-10.5 29q-18 101 -44 159q-51 111 -167 199q-81 -61 -130 -134q-38 -56 -59 -125q-11 -37 -22 -99q-4 -21 -8 -27q-7 -12 -24 -12q-14 0 -22 7q-11 10 -11 31l3 27q37 229 224 374q-46 32 -84 69q-50 49 -80 100
q-9 16 -14 28.5t-5 26.5q0 16 7.5 26.5t23.5 10.5q15 0 23 -9q5 -5 11 -22q21 -53 72 -109q42 -45 95 -84q53 38 95 84q51 56 72 109q5 15 12.5 23t21.5 8q16 0 23.5 -10t7.5 -27q0 -14 -5 -26.5t-14 -28.5q-30 -51 -80 -100q-38 -37 -84 -69q94 -73 149.5 -164.5
t74.5 -209.5z" />
    <glyph glyph-name="Otilde" unicode="&#x425;" horiz-adv-x="578" 
d="M565 38q0 -20 -10 -29t-23 -9q-15 0 -21.5 10t-10.5 29q-18 101 -44 159q-51 111 -167 199q-81 -61 -130 -134q-38 -56 -59 -125q-11 -37 -22 -99q-4 -21 -8 -27q-7 -12 -24 -12q-14 0 -22 7q-11 10 -11 31l3 27q37 229 224 374q-46 32 -84 69q-50 49 -80 100
q-9 16 -14 28.5t-5 26.5q0 16 7.5 26.5t23.5 10.5q15 0 23 -9q5 -5 11 -22q21 -53 72 -109q42 -45 95 -84q53 38 95 84q51 56 72 109q5 15 12.5 23t21.5 8q16 0 23.5 -10t7.5 -27q0 -14 -5 -26.5t-14 -28.5q-30 -51 -80 -100q-38 -37 -84 -69q94 -73 149.5 -164.5
t74.5 -209.5z" />
    <glyph glyph-name="Odieresis" unicode="&#xd6;" horiz-adv-x="580" 
d="M580 -127q0 -17 -9 -27t-24 -10q-14 0 -23.5 9.5t-9.5 27.5v127h-441q-33 0 -33 37v626q0 17 9 27t24 10q14 0 23.5 -9.5t9.5 -27.5v-605h342v605q0 17 9 27t24 10q14 0 23.5 -9.5t9.5 -27.5v-605h14q25 0 34 -5q18 -10 18 -41v-139z" />
    <glyph glyph-name="Odieresis" unicode="&#x426;" horiz-adv-x="580" 
d="M580 -127q0 -17 -9 -27t-24 -10q-14 0 -23.5 9.5t-9.5 27.5v127h-441q-33 0 -33 37v626q0 17 9 27t24 10q14 0 23.5 -9.5t9.5 -27.5v-605h342v605q0 17 9 27t24 10q14 0 23.5 -9.5t9.5 -27.5v-605h14q25 0 34 -5q18 -10 18 -41v-139z" />
    <glyph glyph-name="multiply" unicode="&#xd7;" horiz-adv-x="512" 
d="M472 37q0 -17 -9 -27t-24 -10q-14 0 -23.5 9.5t-9.5 27.5v290q-46 -12 -83 -16t-69 -4q-143 0 -200 95q-34 57 -34 141q0 34 2.5 65t6 49.5t12 30.5t27.5 12q16 0 21.5 -9t5.5 -24v-12q-2 -8 -2 -11q-3 -21 -5 -48t-2 -50q0 -105 63 -148q43 -29 113 -29q32 0 70 5.5
t74 13.5v275q0 17 9 27t24 10q14 0 23.5 -9.5t9.5 -27.5v-626z" />
    <glyph glyph-name="multiply" unicode="&#x427;" horiz-adv-x="512" 
d="M472 37q0 -17 -9 -27t-24 -10q-14 0 -23.5 9.5t-9.5 27.5v290q-46 -12 -83 -16t-69 -4q-143 0 -200 95q-34 57 -34 141q0 34 2.5 65t6 49.5t12 30.5t27.5 12q16 0 21.5 -9t5.5 -24v-12q-2 -8 -2 -11q-3 -21 -5 -48t-2 -50q0 -105 63 -148q43 -29 113 -29q32 0 70 5.5
t74 13.5v275q0 17 9 27t24 10q14 0 23.5 -9.5t9.5 -27.5v-626z" />
    <glyph glyph-name="Oslash" unicode="&#xd8;" horiz-adv-x="788" 
d="M748 37q0 -37 -33 -37h-642q-33 0 -33 37v626q0 17 9 27t24 10q14 0 23.5 -9.5t9.5 -27.5v-605h255v605q0 17 9 27t24 10q14 0 23.5 -9.5t9.5 -27.5v-605h255v605q0 17 9 27t24 10q14 0 23.5 -9.5t9.5 -27.5v-626z" />
    <glyph glyph-name="Oslash" unicode="&#x428;" horiz-adv-x="788" 
d="M748 37q0 -37 -33 -37h-642q-33 0 -33 37v626q0 17 9 27t24 10q14 0 23.5 -9.5t9.5 -27.5v-605h255v605q0 17 9 27t24 10q14 0 23.5 -9.5t9.5 -27.5v-605h255v605q0 17 9 27t24 10q14 0 23.5 -9.5t9.5 -27.5v-626z" />
    <glyph glyph-name="Ugrave" unicode="&#xd9;" horiz-adv-x="814" 
d="M814 -127q0 -17 -9 -27t-24 -10q-14 0 -23.5 9.5t-9.5 27.5v127h-675q-33 0 -33 37v626q0 17 9 27t24 10q14 0 23.5 -9.5t9.5 -27.5v-605h255v605q0 17 9 27t24 10q14 0 23.5 -9.5t9.5 -27.5v-605h255v605q0 17 9 27t24 10q14 0 23.5 -9.5t9.5 -27.5v-605h14q25 0 34 -5
q18 -10 18 -41v-139z" />
    <glyph glyph-name="Ugrave" unicode="&#x429;" horiz-adv-x="814" 
d="M814 -127q0 -17 -9 -27t-24 -10q-14 0 -23.5 9.5t-9.5 27.5v127h-675q-33 0 -33 37v626q0 17 9 27t24 10q14 0 23.5 -9.5t9.5 -27.5v-605h255v605q0 17 9 27t24 10q14 0 23.5 -9.5t9.5 -27.5v-605h255v605q0 17 9 27t24 10q14 0 23.5 -9.5t9.5 -27.5v-605h14q25 0 34 -5
q18 -10 18 -41v-139z" />
    <glyph glyph-name="Uacute" unicode="&#xda;" horiz-adv-x="665" 
d="M645 188q0 -80 -50 -130q-58 -58 -171 -58h-232q-25 0 -36 9q-16 13 -16 45v588h-125q-16 0 -25.5 7.5t-9.5 21.5q0 9 5 16q9 13 30 13h162q11 0 20 -9t9 -23v-181q193 0 316 -86.5t123 -212.5zM575 189q0 93 -104 165q-109 75 -265 75v-371h210q73 0 116 34t43 97z" />
    <glyph glyph-name="Uacute" unicode="&#x42a;" horiz-adv-x="665" 
d="M645 188q0 -80 -50 -130q-58 -58 -171 -58h-232q-25 0 -36 9q-16 13 -16 45v588h-125q-16 0 -25.5 7.5t-9.5 21.5q0 9 5 16q9 13 30 13h162q11 0 20 -9t9 -23v-181q193 0 316 -86.5t123 -212.5zM575 189q0 93 -104 165q-109 75 -265 75v-371h210q73 0 116 34t43 97z" />
    <glyph glyph-name="Ucircumflex" unicode="&#xdb;" horiz-adv-x="722" 
d="M682 37q0 -17 -9 -27t-24 -10q-14 0 -23.5 9.5t-9.5 27.5v626q0 17 9 27t24 10q14 0 23.5 -9.5t9.5 -27.5v-626zM545 188q0 -80 -50 -130q-58 -58 -171 -58h-232q-30 0 -41 13t-11 41v609q0 17 9 27t24 10q14 0 23.5 -9.5t9.5 -27.5v-176q193 0 316 -86.5t123 -212.5z
M475 189q0 93 -104 165q-109 75 -265 75v-371h210q73 0 116 34t43 97z" />
    <glyph glyph-name="Ucircumflex" unicode="&#x42b;" horiz-adv-x="722" 
d="M682 37q0 -17 -9 -27t-24 -10q-14 0 -23.5 9.5t-9.5 27.5v626q0 17 9 27t24 10q14 0 23.5 -9.5t9.5 -27.5v-626zM545 188q0 -80 -50 -130q-58 -58 -171 -58h-232q-30 0 -41 13t-11 41v609q0 17 9 27t24 10q14 0 23.5 -9.5t9.5 -27.5v-176q193 0 316 -86.5t123 -212.5z
M475 189q0 93 -104 165q-109 75 -265 75v-371h210q73 0 116 34t43 97z" />
    <glyph glyph-name="Udieresis" unicode="&#xdc;" horiz-adv-x="565" 
d="M545 188q0 -80 -50 -130q-58 -58 -171 -58h-232q-30 0 -41 13t-11 41v609q0 17 9 27t24 10q14 0 23.5 -9.5t9.5 -27.5v-176q193 0 316 -86.5t123 -212.5zM475 189q0 93 -104 165q-109 75 -265 75v-371h210q73 0 116 34t43 97z" />
    <glyph glyph-name="Udieresis" unicode="&#x42c;" horiz-adv-x="565" 
d="M545 188q0 -80 -50 -130q-58 -58 -171 -58h-232q-30 0 -41 13t-11 41v609q0 17 9 27t24 10q14 0 23.5 -9.5t9.5 -27.5v-176q193 0 316 -86.5t123 -212.5zM475 189q0 93 -104 165q-109 75 -265 75v-371h210q73 0 116 34t43 97z" />
    <glyph glyph-name="Yacute" unicode="&#xdd;" horiz-adv-x="551" 
d="M531 418q0 -186 -127.5 -305.5t-312.5 -119.5q-46 0 -63.5 6.5t-17.5 28.5q0 18 11 23.5t32 5.5h20q159 0 268 86q120 95 120 256h-411q-16 0 -25.5 7.5t-9.5 21.5q0 9 5 16q9 13 30 13h408q-8 91 -63.5 138t-169.5 47h-176q-16 0 -25.5 7.5t-9.5 21.5q0 9 5 16
q9 13 30 13h204q129 0 203.5 -71.5t74.5 -210.5z" />
    <glyph glyph-name="Yacute" unicode="&#x42d;" horiz-adv-x="551" 
d="M531 418q0 -186 -127.5 -305.5t-312.5 -119.5q-46 0 -63.5 6.5t-17.5 28.5q0 18 11 23.5t32 5.5h20q159 0 268 86q120 95 120 256h-411q-16 0 -25.5 7.5t-9.5 21.5q0 9 5 16q9 13 30 13h408q-8 91 -63.5 138t-169.5 47h-176q-16 0 -25.5 7.5t-9.5 21.5q0 9 5 16
q9 13 30 13h204q129 0 203.5 -71.5t74.5 -210.5z" />
    <glyph glyph-name="Thorn" unicode="&#xde;" horiz-adv-x="833" 
d="M813 354q0 -154 -73 -252q-81 -109 -227 -109q-145 0 -226 109q-74 99 -74 252l1 30h-108v-347q0 -17 -9 -27t-24 -10q-14 0 -23.5 9.5t-9.5 27.5v626q0 17 9 27t24 10q14 0 23.5 -9.5t9.5 -27.5v-221h115q18 100 80 171q82 94 212 94q142 0 225 -110q75 -100 75 -243z
M743 350q0 104 -43 181q-60 108 -190 108q-115 0 -175 -90q-52 -78 -52 -199q0 -120 51 -197q61 -92 180 -92q126 0 186 106q43 76 43 183z" />
    <glyph glyph-name="Thorn" unicode="&#x42e;" horiz-adv-x="833" 
d="M813 354q0 -154 -73 -252q-81 -109 -227 -109q-145 0 -226 109q-74 99 -74 252l1 30h-108v-347q0 -17 -9 -27t-24 -10q-14 0 -23.5 9.5t-9.5 27.5v626q0 17 9 27t24 10q14 0 23.5 -9.5t9.5 -27.5v-221h115q18 100 80 171q82 94 212 94q142 0 225 -110q75 -100 75 -243z
M743 350q0 104 -43 181q-60 108 -190 108q-115 0 -175 -90q-52 -78 -52 -199q0 -120 51 -197q61 -92 180 -92q126 0 186 106q43 76 43 183z" />
    <glyph glyph-name="germandbls" unicode="&#xdf;" horiz-adv-x="530" 
d="M490 37q0 -17 -9 -27t-24 -10q-14 0 -23.5 9.5t-9.5 27.5v282q-96 19 -189 56q-65 -61 -103.5 -142t-51.5 -190q-3 -20 -6 -27q-8 -16 -27 -16t-25.5 13.5t-6.5 31.5q0 81 37 174q43 108 119 185q-59 28 -97 74q-43 52 -43 107q0 57 35 86t105 29h279q25 0 34 -18
q6 -11 6 -30v-615zM424 382v260h-241q-41 0 -61.5 -15t-20.5 -47q0 -64 97 -120q86 -50 226 -78z" />
    <glyph glyph-name="germandbls" unicode="&#x42f;" horiz-adv-x="530" 
d="M490 37q0 -17 -9 -27t-24 -10q-14 0 -23.5 9.5t-9.5 27.5v282q-96 19 -189 56q-65 -61 -103.5 -142t-51.5 -190q-3 -20 -6 -27q-8 -16 -27 -16t-25.5 13.5t-6.5 31.5q0 81 37 174q43 108 119 185q-59 28 -97 74q-43 52 -43 107q0 57 35 86t105 29h279q25 0 34 -18
q6 -11 6 -30v-615zM424 382v260h-241q-41 0 -61.5 -15t-20.5 -47q0 -64 97 -120q86 -50 226 -78z" />
    <glyph glyph-name="agrave" unicode="&#xe0;" horiz-adv-x="485" 
d="M445 32q0 -32 -30 -32t-30 32v22q-28 -27 -59 -40q-42 -18 -103 -18q-108 0 -161 53q-42 42 -42 104q0 88 77 135q89 54 288 54v17q0 48 -25 73t-74 25h-200q-13 0 -22 7t-9 20q0 17 11.5 22t22.5 5h207q66 0 107.5 -37.5t41.5 -102.5v-339zM385 169v121q-129 0 -194 -19
q-107 -31 -107 -116q0 -45 32 -73q37 -32 107 -32q68 0 111 27q51 32 51 92z" />
    <glyph glyph-name="agrave" unicode="&#x430;" horiz-adv-x="485" 
d="M445 32q0 -32 -30 -32t-30 32v22q-28 -27 -59 -40q-42 -18 -103 -18q-108 0 -161 53q-42 42 -42 104q0 88 77 135q89 54 288 54v17q0 48 -25 73t-74 25h-200q-13 0 -22 7t-9 20q0 17 11.5 22t22.5 5h207q66 0 107.5 -37.5t41.5 -102.5v-339zM385 169v121q-129 0 -194 -19
q-107 -31 -107 -116q0 -45 32 -73q37 -32 107 -32q68 0 111 27q51 32 51 92z" />
    <glyph glyph-name="aacute" unicode="&#xe1;" horiz-adv-x="520" 
d="M493 247q0 -100 -51 -169q-61 -82 -177 -82q-119 0 -182 83t-63 243q0 169 49 262q39 73 108 100q42 16 107 16h154q28 0 28 -27t-28 -27h-154q-71 0 -112 -28q-67 -46 -81 -170q41 28 85.5 42t92.5 14q101 0 162.5 -70.5t61.5 -186.5zM429 254q0 93 -53 147
q-47 47 -113 47q-39 0 -87 -16t-89 -46l-3 -63q0 -107 27 -170q43 -101 152 -101q77 0 121.5 54.5t44.5 147.5z" />
    <glyph glyph-name="aacute" unicode="&#x431;" horiz-adv-x="520" 
d="M493 247q0 -100 -51 -169q-61 -82 -177 -82q-119 0 -182 83t-63 243q0 169 49 262q39 73 108 100q42 16 107 16h154q28 0 28 -27t-28 -27h-154q-71 0 -112 -28q-67 -46 -81 -170q41 28 85.5 42t92.5 14q101 0 162.5 -70.5t61.5 -186.5zM429 254q0 93 -53 147
q-47 47 -113 47q-39 0 -87 -16t-89 -46l-3 -63q0 -107 27 -170q43 -101 152 -101q77 0 121.5 54.5t44.5 147.5z" />
    <glyph glyph-name="acircumflex" unicode="&#xe2;" horiz-adv-x="463" 
d="M443 140q0 -64 -44 -102t-119 -38h-208q-21 0 -26.5 8.5t-5.5 23.5v447q0 15 8.5 23.5t23.5 8.5h218q60 0 92.5 -28.5t32.5 -82.5q0 -27 -9 -50q-14 -37 -50 -68q36 -21 58 -50q29 -40 29 -92zM351 398q0 59 -67 59h-184v-113q53 0 102.5 -7t103.5 -29q45 53 45 90z
M379 136q0 74 -91 118q-81 39 -188 39v-239h180q41 0 68 19q31 22 31 63z" />
    <glyph glyph-name="acircumflex" unicode="&#x432;" horiz-adv-x="463" 
d="M443 140q0 -64 -44 -102t-119 -38h-208q-21 0 -26.5 8.5t-5.5 23.5v447q0 15 8.5 23.5t23.5 8.5h218q60 0 92.5 -28.5t32.5 -82.5q0 -27 -9 -50q-14 -37 -50 -68q36 -21 58 -50q29 -40 29 -92zM351 398q0 59 -67 59h-184v-113q53 0 102.5 -7t103.5 -29q45 53 45 90z
M379 136q0 74 -91 118q-81 39 -188 39v-239h180q41 0 68 19q31 22 31 63z" />
    <glyph glyph-name="atilde" unicode="&#xe3;" horiz-adv-x="300" 
d="M319 484q0 -27 -28 -27h-191v-425q0 -32 -30 -32t-30 32v447q0 32 30 32h221q28 0 28 -27z" />
    <glyph glyph-name="atilde" unicode="&#x433;" horiz-adv-x="300" 
d="M319 484q0 -27 -28 -27h-191v-425q0 -32 -30 -32t-30 32v447q0 32 30 32h221q28 0 28 -27z" />
    <glyph glyph-name="adieresis" unicode="&#xe4;" horiz-adv-x="521" 
d="M530 -132q0 -32 -30 -32t-30 32v132h-434v-132q0 -32 -30 -32t-30 32v141q0 19 14 32t46 13h10q16 113 44 209q34 115 80 186q25 38 51 50t83 12h119q20 0 26 -11t6 -31v-415h20q28 0 41.5 -9.5t13.5 -28.5v-148zM396 54v403h-93q-40 0 -56 -10q-29 -18 -59 -85
q-37 -84 -60 -184q-15 -68 -21 -124h289z" />
    <glyph glyph-name="adieresis" unicode="&#x434;" horiz-adv-x="521" 
d="M530 -132q0 -32 -30 -32t-30 32v132h-434v-132q0 -32 -30 -32t-30 32v141q0 19 14 32t46 13h10q16 113 44 209q34 115 80 186q25 38 51 50t83 12h119q20 0 26 -11t6 -31v-415h20q28 0 41.5 -9.5t13.5 -28.5v-148zM396 54v403h-93q-40 0 -56 -10q-29 -18 -59 -85
q-37 -84 -60 -184q-15 -68 -21 -124h289z" />
    <glyph glyph-name="aring" unicode="&#xe5;" 
d="M480 300q0 -19 -4 -27q-8 -16 -29 -16h-363q0 -101 58.5 -153t164.5 -52h43q18 3 27 4l36 4q13 2 20 2.5t14 0.5q14 0 21.5 -5.5t7.5 -20.5q0 -16 -15 -24q-9 -5 -27 -7l-61 -6q-36 -4 -80 -4q-132 0 -202.5 68.5t-70.5 187.5q0 118 68.5 190.5t177.5 72.5q101 0 160 -67
q54 -61 54 -148zM416 311q0 67 -44.5 107.5t-108.5 40.5q-65 0 -112.5 -41t-60.5 -107h326z" />
    <glyph glyph-name="aring" unicode="&#x435;" 
d="M480 300q0 -19 -4 -27q-8 -16 -29 -16h-363q0 -101 58.5 -153t164.5 -52h43q18 3 27 4l36 4q13 2 20 2.5t14 0.5q14 0 21.5 -5.5t7.5 -20.5q0 -16 -15 -24q-9 -5 -27 -7l-61 -6q-36 -4 -80 -4q-132 0 -202.5 68.5t-70.5 187.5q0 118 68.5 190.5t177.5 72.5q101 0 160 -67
q54 -61 54 -148zM416 311q0 67 -44.5 107.5t-108.5 40.5q-65 0 -112.5 -41t-60.5 -107h326z" />
    <glyph glyph-name="ae" unicode="&#xe6;" horiz-adv-x="658" 
d="M645 46q0 -23 -5 -34.5t-24 -11.5q-13 0 -21.5 10t-8.5 33q0 62 -19 110q-30 75 -107 131q-20 -8 -45 -13t-56 -5v-234q0 -32 -30 -32t-30 32v234q-31 0 -56 5t-45 13q-76 -55 -106 -130q-20 -50 -20 -111q0 -19 -4 -28q-7 -15 -26 -15q-18 0 -23.5 12t-5.5 34
q0 66 19 119q31 85 109 144q-52 34 -80 80t-28 89q0 33 27 33q15 0 21 -7t11 -24q19 -60 53 -97q57 -63 154 -63v159q0 32 30 32t30 -32v-159q97 0 154 62q33 36 53 98q4 14 6 18q7 13 26 13q27 0 27 -33q0 -42 -27 -86q-30 -49 -81 -83q77 -58 108 -143q20 -55 20 -120z
" />
    <glyph glyph-name="ae" unicode="&#x436;" horiz-adv-x="658" 
d="M645 46q0 -23 -5 -34.5t-24 -11.5q-13 0 -21.5 10t-8.5 33q0 62 -19 110q-30 75 -107 131q-20 -8 -45 -13t-56 -5v-234q0 -32 -30 -32t-30 32v234q-31 0 -56 5t-45 13q-76 -55 -106 -130q-20 -50 -20 -111q0 -19 -4 -28q-7 -15 -26 -15q-18 0 -23.5 12t-5.5 34
q0 66 19 119q31 85 109 144q-52 34 -80 80t-28 89q0 33 27 33q15 0 21 -7t11 -24q19 -60 53 -97q57 -63 154 -63v159q0 32 30 32t30 -32v-159q97 0 154 62q33 36 53 98q4 14 6 18q7 13 26 13q27 0 27 -33q0 -42 -27 -86q-30 -49 -81 -83q77 -58 108 -143q20 -55 20 -120z
" />
    <glyph glyph-name="ccedilla" unicode="&#xe7;" horiz-adv-x="410" 
d="M390 175q0 -81 -73 -130t-189 -49q-37 0 -64.5 3t-44.5 12.5t-17 25.5q0 12 6.5 20t24.5 8q8 0 22 -3.5t34 -6.5t45 -3q102 0 153 46q39 35 39 84q0 38 -29 64t-74 26h-142q-13 0 -22 7t-9 20q0 17 11.5 22t22.5 5h123q49 0 75 29q21 23 21 55q0 29 -26 40q-17 7 -51 7
h-172q-13 0 -22 7t-9 20q0 17 11.5 22t22.5 5h177q51 0 76 -10q57 -23 57 -89q0 -34 -17.5 -63t-50.5 -44q45 -14 68 -48.5t23 -81.5z" />
    <glyph glyph-name="ccedilla" unicode="&#x437;" horiz-adv-x="410" 
d="M390 175q0 -81 -73 -130t-189 -49q-37 0 -64.5 3t-44.5 12.5t-17 25.5q0 12 6.5 20t24.5 8q8 0 22 -3.5t34 -6.5t45 -3q102 0 153 46q39 35 39 84q0 38 -29 64t-74 26h-142q-13 0 -22 7t-9 20q0 17 11.5 22t22.5 5h123q49 0 75 29q21 23 21 55q0 29 -26 40q-17 7 -51 7
h-172q-13 0 -22 7t-9 20q0 17 11.5 22t22.5 5h177q51 0 76 -10q57 -23 57 -89q0 -34 -17.5 -63t-50.5 -44q45 -14 68 -48.5t23 -81.5z" />
    <glyph glyph-name="egrave" unicode="&#xe8;" horiz-adv-x="488" 
d="M448 32q0 -32 -30 -32t-30 32v420q-110 -52 -188 -129q-100 -99 -100 -200v-91q0 -32 -30 -32t-30 32v447q0 32 30 32t30 -32v-193q65 90 162.5 157.5t156.5 67.5q12 0 20.5 -7t8.5 -20v-452z" />
    <glyph glyph-name="egrave" unicode="&#x438;" horiz-adv-x="488" 
d="M448 32q0 -32 -30 -32t-30 32v420q-110 -52 -188 -129q-100 -99 -100 -200v-91q0 -32 -30 -32t-30 32v447q0 32 30 32t30 -32v-193q65 90 162.5 157.5t156.5 67.5q12 0 20.5 -7t8.5 -20v-452z" />
    <glyph glyph-name="eacute" unicode="&#xe9;" horiz-adv-x="440" 
d="M350 645q0 -27 -29 -52q-37 -32 -101 -32q-63 0 -100 31q-30 25 -30 53q0 30 28 30q9 0 14 -4t12 -13q12 -15 26 -25q23 -16 50 -16q28 0 50 15q12 8 26 26q8 11 10 12q6 5 16 5q12 0 20 -8.5t8 -21.5zM424 32q0 -32 -30 -32t-30 32v420q-110 -52 -188 -129
q-100 -99 -100 -200v-91q0 -32 -30 -32t-30 32v447q0 32 30 32t30 -32v-193q65 90 162.5 157.5t156.5 67.5q12 0 20.5 -7t8.5 -20v-452z" />
    <glyph glyph-name="eacute" unicode="&#x439;" horiz-adv-x="440" 
d="M350 645q0 -27 -29 -52q-37 -32 -101 -32q-63 0 -100 31q-30 25 -30 53q0 30 28 30q9 0 14 -4t12 -13q12 -15 26 -25q23 -16 50 -16q28 0 50 15q12 8 26 26q8 11 10 12q6 5 16 5q12 0 20 -8.5t8 -21.5zM424 32q0 -32 -30 -32t-30 32v420q-110 -52 -188 -129
q-100 -99 -100 -200v-91q0 -32 -30 -32t-30 32v447q0 32 30 32t30 -32v-193q65 90 162.5 157.5t156.5 67.5q12 0 20.5 -7t8.5 -20v-452z" />
    <glyph glyph-name="ecircumflex" unicode="&#xea;" horiz-adv-x="468" 
d="M458 42q0 -18 -4 -27q-7 -15 -26 -15q-17 0 -24 12.5t-7 26.5q0 80 -43 144.5t-116 97.5q-27 -9 -62.5 -13t-75.5 -4v-232q0 -32 -30 -32t-30 32v447q0 32 30 32t30 -32v-161q79 0 136 24q94 40 138 145q6 13 10.5 18.5t17.5 5.5q29 0 29 -27q0 -10 -3 -20t-10 -26
q-24 -50 -61 -85q-25 -23 -55 -40q81 -48 121 -125q35 -67 35 -146z" />
    <glyph glyph-name="ecircumflex" unicode="&#x43a;" horiz-adv-x="468" 
d="M458 42q0 -18 -4 -27q-7 -15 -26 -15q-17 0 -24 12.5t-7 26.5q0 80 -43 144.5t-116 97.5q-27 -9 -62.5 -13t-75.5 -4v-232q0 -32 -30 -32t-30 32v447q0 32 30 32t30 -32v-161q79 0 136 24q94 40 138 145q6 13 10.5 18.5t17.5 5.5q29 0 29 -27q0 -10 -3 -20t-10 -26
q-24 -50 -61 -85q-25 -23 -55 -40q81 -48 121 -125q35 -67 35 -146z" />
    <glyph glyph-name="edieresis" unicode="&#xeb;" horiz-adv-x="469" 
d="M429 32q0 -32 -30 -32t-30 32v425h-81q-36 0 -64 -21t-55 -74q-34 -66 -59.5 -155.5t-25.5 -148.5l-2 -26q-2 -17 -9.5 -24.5t-22.5 -7.5q-12 0 -21 7t-9 25l1 27q8 95 47 211t83 175q32 43 73 57q26 9 74 9h98q19 0 26 -11.5t7 -30.5v-437z" />
    <glyph glyph-name="edieresis" unicode="&#x43b;" horiz-adv-x="469" 
d="M429 32q0 -32 -30 -32t-30 32v425h-81q-36 0 -64 -21t-55 -74q-34 -66 -59.5 -155.5t-25.5 -148.5l-2 -26q-2 -17 -9.5 -24.5t-22.5 -7.5q-12 0 -21 7t-9 25l1 27q8 95 47 211t83 175q32 43 73 57q26 9 74 9h98q19 0 26 -11.5t7 -30.5v-437z" />
    <glyph glyph-name="igrave" unicode="&#xec;" horiz-adv-x="544" 
d="M521 52q0 -23 -4 -34q-7 -18 -25 -18t-24 14.5t-6 32.5v35q0 73 -7.5 160.5t-24.5 168.5q-25 -62 -67 -135q-58 -100 -91 -100t-91 99q-41 71 -67 136q-15 -71 -23.5 -167.5t-8.5 -161.5v-35q0 -19 -4 -29q-7 -18 -26 -18q-17 0 -23 15.5t-6 36.5q0 104 14.5 226
t38.5 199q11 38 32 38q15 0 23 -12q4 -6 19 -42q24 -58 48 -104q34 -64 74 -120q43 60 74 119q23 44 48 105q13 32 14 33q10 21 28 21q21 0 32 -38q22 -71 37.5 -199t15.5 -226z" />
    <glyph glyph-name="igrave" unicode="&#x43c;" horiz-adv-x="544" 
d="M521 52q0 -23 -4 -34q-7 -18 -25 -18t-24 14.5t-6 32.5v35q0 73 -7.5 160.5t-24.5 168.5q-25 -62 -67 -135q-58 -100 -91 -100t-91 99q-41 71 -67 136q-15 -71 -23.5 -167.5t-8.5 -161.5v-35q0 -19 -4 -29q-7 -18 -26 -18q-17 0 -23 15.5t-6 36.5q0 104 14.5 226
t38.5 199q11 38 32 38q15 0 23 -12q4 -6 19 -42q24 -58 48 -104q34 -64 74 -120q43 60 74 119q23 44 48 105q13 32 14 33q10 21 28 21q21 0 32 -38q22 -71 37.5 -199t15.5 -226z" />
    <glyph glyph-name="iacute" unicode="&#xed;" horiz-adv-x="488" 
d="M448 32q0 -32 -30 -32t-30 32v259h-288v-259q0 -32 -30 -32t-30 32v447q0 32 30 32t30 -32v-134h288v134q0 32 30 32t30 -32v-447z" />
    <glyph glyph-name="iacute" unicode="&#x43d;" horiz-adv-x="488" 
d="M448 32q0 -32 -30 -32t-30 32v259h-288v-259q0 -32 -30 -32t-30 32v447q0 32 30 32t30 -32v-134h288v134q0 32 30 32t30 -32v-447z" />
    <glyph glyph-name="icircumflex" unicode="&#xee;" horiz-adv-x="506" 
d="M486 255q0 -107 -53 -177q-62 -82 -180 -82q-116 0 -179 82q-54 71 -54 177q0 111 63.5 185.5t169.5 74.5q105 0 169 -74.5t64 -185.5zM422 256q0 84 -41 140q-46 63 -128 63q-81 0 -127 -63q-42 -57 -42 -140q0 -93 44 -148.5t125 -55.5q80 0 124.5 55.5t44.5 148.5z
" />
    <glyph glyph-name="icircumflex" unicode="&#x43e;" horiz-adv-x="506" 
d="M486 255q0 -107 -53 -177q-62 -82 -180 -82q-116 0 -179 82q-54 71 -54 177q0 111 63.5 185.5t169.5 74.5q105 0 169 -74.5t64 -185.5zM422 256q0 84 -41 140q-46 63 -128 63q-81 0 -127 -63q-42 -57 -42 -140q0 -93 44 -148.5t125 -55.5q80 0 124.5 55.5t44.5 148.5z
" />
    <glyph glyph-name="idieresis" unicode="&#xef;" horiz-adv-x="478" 
d="M438 32q0 -32 -30 -32t-30 32v425h-278v-425q0 -32 -30 -32t-30 32v447q0 32 30 32h338q30 0 30 -32v-447z" />
    <glyph glyph-name="idieresis" unicode="&#x43f;" horiz-adv-x="478" 
d="M438 32q0 -32 -30 -32t-30 32v425h-278v-425q0 -32 -30 -32t-30 32v447q0 32 30 32h338q30 0 30 -32v-447z" />
    <glyph glyph-name="eth" unicode="&#xf0;" 
d="M484 216q0 -90 -50 -147q-60 -69 -179 -69h-155v-157q0 -32 -30 -32t-30 32v636q0 32 30 32h63q141 0 243 -79q108 -84 108 -216zM420 211q0 109 -84.5 177.5t-221.5 68.5h-14v-403h137q73 0 114 22q69 37 69 135z" />
    <glyph glyph-name="eth" unicode="&#x440;" 
d="M484 216q0 -90 -50 -147q-60 -69 -179 -69h-155v-157q0 -32 -30 -32t-30 32v636q0 32 30 32h63q141 0 243 -79q108 -84 108 -216zM420 211q0 109 -84.5 177.5t-221.5 68.5h-14v-403h137q73 0 114 22q69 37 69 135z" />
    <glyph glyph-name="ntilde" unicode="&#xf1;" horiz-adv-x="458" 
d="M458 28q0 -8 -4 -15q-7 -13 -25 -13l-38 -3l-44 -1q-159 0 -248 91q-79 81 -79 204q0 90 44 147q57 73 177 73h167q28 0 28 -27t-28 -27h-141q-73 0 -114 -23q-69 -39 -69 -143q0 -100 72 -167q77 -72 204 -72l38 1l28 1q18 0 25 -8t7 -18z" />
    <glyph glyph-name="ntilde" unicode="&#x441;" horiz-adv-x="458" 
d="M458 28q0 -8 -4 -15q-7 -13 -25 -13l-38 -3l-44 -1q-159 0 -248 91q-79 81 -79 204q0 90 44 147q57 73 177 73h167q28 0 28 -27t-28 -27h-141q-73 0 -114 -23q-69 -39 -69 -143q0 -100 72 -167q77 -72 204 -72l38 1l28 1q18 0 25 -8t7 -18z" />
    <glyph glyph-name="ograve" unicode="&#xf2;" horiz-adv-x="380" 
d="M399 484q0 -27 -28 -27h-151v-425q0 -32 -30 -32t-30 32v425h-151q-28 0 -28 27t28 27h362q28 0 28 -27z" />
    <glyph glyph-name="ograve" unicode="&#x442;" horiz-adv-x="380" 
d="M399 484q0 -27 -28 -27h-151v-425q0 -32 -30 -32t-30 32v425h-151q-28 0 -28 27t28 27h362q28 0 28 -27z" />
    <glyph glyph-name="oacute" unicode="&#xf3;" horiz-adv-x="450" 
d="M443 444q-15 -121 -82 -276q-80 -185 -205 -340q-7 -8 -13 -12.5t-16 -4.5q-30 0 -30 26q0 9 3.5 16t10.5 16q12 16 31 41q25 34 52 76q-79 108 -125 213t-60 214q-2 23 -3 34t-1 22q0 18 4.5 30t23.5 12q14 0 23 -9t9 -27q10 -106 34 -182q40 -127 131 -251
q77 127 115 248q24 76 41 187q3 15 6 21q8 13 25 13q15 0 21.5 -10.5t6.5 -29.5v-13q-2 -10 -2 -14z" />
    <glyph glyph-name="oacute" unicode="&#x443;" horiz-adv-x="450" 
d="M443 444q-15 -121 -82 -276q-80 -185 -205 -340q-7 -8 -13 -12.5t-16 -4.5q-30 0 -30 26q0 9 3.5 16t10.5 16q12 16 31 41q25 34 52 76q-79 108 -125 213t-60 214q-2 23 -3 34t-1 22q0 18 4.5 30t23.5 12q14 0 23 -9t9 -27q10 -106 34 -182q40 -127 131 -251
q77 127 115 248q24 76 41 187q3 15 6 21q8 13 25 13q15 0 21.5 -10.5t6.5 -29.5v-13q-2 -10 -2 -14z" />
    <glyph glyph-name="ocircumflex" unicode="&#xf4;" horiz-adv-x="676" 
d="M660 290q0 -131 -81.5 -210.5t-203.5 -79.5h-7v-157q0 -32 -30 -32t-30 32v157h-7q-123 0 -202 77q-83 81 -83 213q0 101 59 161t158 60h75v157q0 32 30 32t30 -32v-157h85q95 0 151 -60t56 -161zM596 301q0 67 -31 106q-40 50 -129 50h-68v-403h8q101 0 160.5 68.5
t59.5 178.5zM308 54v403h-58q-94 0 -136 -49q-34 -39 -34 -107q0 -110 59.5 -178.5t160.5 -68.5h8z" />
    <glyph glyph-name="ocircumflex" unicode="&#x444;" horiz-adv-x="676" 
d="M660 290q0 -131 -81.5 -210.5t-203.5 -79.5h-7v-157q0 -32 -30 -32t-30 32v157h-7q-123 0 -202 77q-83 81 -83 213q0 101 59 161t158 60h75v157q0 32 30 32t30 -32v-157h85q95 0 151 -60t56 -161zM596 301q0 67 -31 106q-40 50 -129 50h-68v-403h8q101 0 160.5 68.5
t59.5 178.5zM308 54v403h-58q-94 0 -136 -49q-34 -39 -34 -107q0 -110 59.5 -178.5t160.5 -68.5h8z" />
    <glyph glyph-name="otilde" unicode="&#xf5;" horiz-adv-x="428" 
d="M421 39q0 -22 -8.5 -30.5t-21.5 -8.5q-19 0 -26 20q-2 6 -4 19q-7 57 -31 98q-34 58 -116 122q-83 -64 -116 -121q-24 -40 -31 -99q-3 -17 -6 -24q-7 -15 -24 -15q-13 0 -20 7q-10 10 -10 32q0 13 1 21t4 23q15 70 65 129q35 41 86 75q-43 30 -75 69q-38 47 -47 94
q-3 15 -3 28q0 33 30 33q18 0 24 -13t6 -28q4 -40 35 -81.5t81 -74.5q51 34 81.5 74t34.5 82q0 16 4 25q8 16 26 16q30 0 30 -33q0 -13 -3 -28q-9 -48 -46 -94q-30 -38 -76 -69q49 -33 85 -75q51 -61 66 -129q3 -15 4 -21.5t1 -22.5z" />
    <glyph glyph-name="otilde" unicode="&#x445;" horiz-adv-x="428" 
d="M421 39q0 -22 -8.5 -30.5t-21.5 -8.5q-19 0 -26 20q-2 6 -4 19q-7 57 -31 98q-34 58 -116 122q-83 -64 -116 -121q-24 -40 -31 -99q-3 -17 -6 -24q-7 -15 -24 -15q-13 0 -20 7q-10 10 -10 32q0 13 1 21t4 23q15 70 65 129q35 41 86 75q-43 30 -75 69q-38 47 -47 94
q-3 15 -3 28q0 33 30 33q18 0 24 -13t6 -28q4 -40 35 -81.5t81 -74.5q51 34 81.5 74t34.5 82q0 16 4 25q8 16 26 16q30 0 30 -33q0 -13 -3 -28q-9 -48 -46 -94q-30 -38 -76 -69q49 -33 85 -75q51 -61 66 -129q3 -15 4 -21.5t1 -22.5z" />
    <glyph glyph-name="odieresis" unicode="&#xf6;" horiz-adv-x="504" 
d="M513 -132q0 -32 -30 -32t-30 32v132h-383q-30 0 -30 32v447q0 32 30 32t30 -32v-425h278v425q0 32 30 32t30 -32v-425h21q21 0 33 -5q21 -9 21 -33v-148z" />
    <glyph glyph-name="odieresis" unicode="&#x446;" horiz-adv-x="504" 
d="M513 -132q0 -32 -30 -32t-30 32v132h-383q-30 0 -30 32v447q0 32 30 32t30 -32v-425h278v425q0 32 30 32t30 -32v-425h21q21 0 33 -5q21 -9 21 -33v-148z" />
    <glyph glyph-name="divide" unicode="&#xf7;" horiz-adv-x="426" 
d="M386 32q0 -32 -30 -32t-30 32v191q-24 -11 -57.5 -19t-70.5 -8q-84 0 -130 42q-53 48 -53 146q0 71 8.5 99t33.5 28q13 0 19.5 -6.5t6.5 -21.5l-4 -38l-4 -65q0 -54 20 -83q31 -45 106 -45q32 0 61 5.5t64 22.5v199q0 32 30 32t30 -32v-447z" />
    <glyph glyph-name="divide" unicode="&#x447;" horiz-adv-x="426" 
d="M386 32q0 -32 -30 -32t-30 32v191q-24 -11 -57.5 -19t-70.5 -8q-84 0 -130 42q-53 48 -53 146q0 71 8.5 99t33.5 28q13 0 19.5 -6.5t6.5 -21.5l-4 -38l-4 -65q0 -54 20 -83q31 -45 106 -45q32 0 61 5.5t64 22.5v199q0 32 30 32t30 -32v-447z" />
    <glyph glyph-name="oslash" unicode="&#xf8;" horiz-adv-x="668" 
d="M628 32q0 -32 -30 -32h-528q-30 0 -30 32v447q0 32 30 32t30 -32v-425h204v425q0 32 30 32t30 -32v-425h204v425q0 32 30 32t30 -32v-447z" />
    <glyph glyph-name="oslash" unicode="&#x448;" horiz-adv-x="668" 
d="M628 32q0 -32 -30 -32h-528q-30 0 -30 32v447q0 32 30 32t30 -32v-425h204v425q0 32 30 32t30 -32v-425h204v425q0 32 30 32t30 -32v-447z" />
    <glyph glyph-name="ugrave" unicode="&#xf9;" horiz-adv-x="694" 
d="M703 -132q0 -32 -30 -32t-30 32v132h-573q-30 0 -30 32v447q0 32 30 32t30 -32v-425h204v425q0 32 30 32t30 -32v-425h204v425q0 32 30 32t30 -32v-425h21q21 0 33 -5q21 -9 21 -33v-148z" />
    <glyph glyph-name="ugrave" unicode="&#x449;" horiz-adv-x="694" 
d="M703 -132q0 -32 -30 -32t-30 32v132h-573q-30 0 -30 32v447q0 32 30 32t30 -32v-425h204v425q0 32 30 32t30 -32v-425h204v425q0 32 30 32t30 -32v-425h21q21 0 33 -5q21 -9 21 -33v-148z" />
    <glyph glyph-name="uacute" unicode="&#xfa;" horiz-adv-x="484" 
d="M478 136q0 -64 -42 -100t-119 -36h-190q-20 0 -28 14q-4 7 -4 18v425h-89q-13 0 -22 7t-9 20q0 17 11.5 22t22.5 5h118q10 0 19 -8t9 -24v-142q117 0 210 -47q113 -57 113 -154zM414 139q0 65 -99 108q-81 35 -160 35v-228h165q56 0 79 32q15 21 15 53z" />
    <glyph glyph-name="uacute" unicode="&#x44a;" horiz-adv-x="484" 
d="M478 136q0 -64 -42 -100t-119 -36h-190q-20 0 -28 14q-4 7 -4 18v425h-89q-13 0 -22 7t-9 20q0 17 11.5 22t22.5 5h118q10 0 19 -8t9 -24v-142q117 0 210 -47q113 -57 113 -154zM414 139q0 65 -99 108q-81 35 -160 35v-228h165q56 0 79 32q15 21 15 53z" />
    <glyph glyph-name="ucircumflex" unicode="&#xfb;" horiz-adv-x="571" 
d="M531 32q0 -32 -30 -32t-30 32v447q0 32 30 32t30 -32v-447zM423 136q0 -64 -42 -100t-119 -36h-190q-20 0 -28 14q-4 7 -4 18v447q0 16 9 24t22 8q29 0 29 -32v-142q117 0 210 -47q113 -57 113 -154zM359 139q0 65 -98 108q-80 35 -161 35v-228h165q58 0 80 32
q14 20 14 53z" />
    <glyph glyph-name="ucircumflex" unicode="&#x44b;" horiz-adv-x="571" 
d="M531 32q0 -32 -30 -32t-30 32v447q0 32 30 32t30 -32v-447zM423 136q0 -64 -42 -100t-119 -36h-190q-20 0 -28 14q-4 7 -4 18v447q0 16 9 24t22 8q29 0 29 -32v-142q117 0 210 -47q113 -57 113 -154zM359 139q0 65 -98 108q-80 35 -161 35v-228h165q58 0 80 32
q14 20 14 53z" />
    <glyph glyph-name="udieresis" unicode="&#xfc;" horiz-adv-x="429" 
d="M423 136q0 -64 -42 -100t-119 -36h-190q-20 0 -28 14q-4 7 -4 18v447q0 16 9 24t22 8q29 0 29 -32v-142q117 0 210 -47q113 -57 113 -154zM359 139q0 65 -98 108q-80 35 -161 35v-228h165q58 0 80 32q14 20 14 53z" />
    <glyph glyph-name="udieresis" unicode="&#x44c;" horiz-adv-x="429" 
d="M423 136q0 -64 -42 -100t-119 -36h-190q-20 0 -28 14q-4 7 -4 18v447q0 16 9 24t22 8q29 0 29 -32v-142q117 0 210 -47q113 -57 113 -154zM359 139q0 65 -98 108q-80 35 -161 35v-228h165q58 0 80 32q14 20 14 53z" />
    <glyph glyph-name="yacute" unicode="&#xfd;" horiz-adv-x="451" 
d="M431 294q0 -113 -75 -196q-93 -102 -262 -102q-52 0 -72 7.5t-20 27.5q0 28 31 28q3 0 39 -5q14 -2 34 -2q100 0 173.5 61.5t87.5 155.5h-303q-18 0 -24.5 8.5t-6.5 18.5q0 16 10.5 21.5t23.5 5.5h300q0 81 -70 113q-46 21 -124 21h-123q-13 0 -22 7t-9 20q0 17 11.5 22
t22.5 5h155q113 0 172 -68q51 -59 51 -149z" />
    <glyph glyph-name="yacute" unicode="&#x44d;" horiz-adv-x="451" 
d="M431 294q0 -113 -75 -196q-93 -102 -262 -102q-52 0 -72 7.5t-20 27.5q0 28 31 28q3 0 39 -5q14 -2 34 -2q100 0 173.5 61.5t87.5 155.5h-303q-18 0 -24.5 8.5t-6.5 18.5q0 16 10.5 21.5t23.5 5.5h300q0 81 -70 113q-46 21 -124 21h-123q-13 0 -22 7t-9 20q0 17 11.5 22
t22.5 5h155q113 0 172 -68q51 -59 51 -149z" />
    <glyph glyph-name="thorn" unicode="&#xfe;" horiz-adv-x="678" 
d="M658 255q0 -107 -53 -177q-62 -82 -180 -82q-115 0 -178 82q-56 73 -56 187h-91v-233q0 -32 -30 -32t-30 32v447q0 32 30 32t30 -32v-157h99q18 92 86 145q62 48 140 48q105 0 169 -74.5t64 -185.5zM594 256q0 84 -41 140q-46 63 -128 63q-81 0 -127 -63
q-42 -57 -42 -140q0 -93 44 -148.5t125 -55.5q80 0 124.5 55.5t44.5 148.5z" />
    <glyph glyph-name="thorn" unicode="&#x44e;" horiz-adv-x="678" 
d="M658 255q0 -107 -53 -177q-62 -82 -180 -82q-115 0 -178 82q-56 73 -56 187h-91v-233q0 -32 -30 -32t-30 32v447q0 32 30 32t30 -32v-157h99q18 92 86 145q62 48 140 48q105 0 169 -74.5t64 -185.5zM594 256q0 84 -41 140q-46 63 -128 63q-81 0 -127 -63
q-42 -57 -42 -140q0 -93 44 -148.5t125 -55.5q80 0 124.5 55.5t44.5 148.5z" />
    <glyph glyph-name="ydieresis" unicode="&#xff;" horiz-adv-x="443" 
d="M403 32q0 -32 -30 -32t-30 32v174q-84 11 -159 44q-55 -59 -78 -121q-11 -29 -23 -98q-2 -13 -7 -20q-8 -11 -27 -11q-27 0 -27 35q0 13 3 33q8 50 29 97q28 63 77 111q-39 25 -65 62q-31 43 -31 88q0 56 47 75q25 10 84 10h203q21 0 29 -12q5 -8 5 -20v-447zM343 265
v192h-193q-21 0 -32 -5q-19 -9 -19 -33q0 -40 52 -82q68 -55 192 -72z" />
    <glyph glyph-name="ydieresis" unicode="&#x44f;" horiz-adv-x="443" 
d="M403 32q0 -32 -30 -32t-30 32v174q-84 11 -159 44q-55 -59 -78 -121q-11 -29 -23 -98q-2 -13 -7 -20q-8 -11 -27 -11q-27 0 -27 35q0 13 3 33q8 50 29 97q28 63 77 111q-39 25 -65 62q-31 43 -31 88q0 56 47 75q25 10 84 10h203q21 0 29 -12q5 -8 5 -20v-447zM343 265
v192h-193q-21 0 -32 -5q-19 -9 -19 -33q0 -40 52 -82q68 -55 192 -72z" />
    <glyph glyph-name="OE" unicode="&#x152;" horiz-adv-x="974" 
d="M954 188q0 -80 -50 -130q-58 -58 -171 -58h-232q-30 0 -41 13t-11 41v399h-343v-416q0 -17 -9 -27t-24 -10q-14 0 -23.5 9.5t-9.5 27.5v626q0 17 9 27t24 10q14 0 23.5 -9.5t9.5 -27.5v-152h343v152q0 17 9 27t24 10q14 0 23.5 -9.5t9.5 -27.5v-167q214 0 336 -103
q103 -87 103 -205zM884 189q0 97 -104 170q-109 77 -265 77v-378h210q73 0 116 34t43 97z" />
    <glyph glyph-name="OE" unicode="&#x40a;" horiz-adv-x="974" 
d="M954 188q0 -80 -50 -130q-58 -58 -171 -58h-232q-30 0 -41 13t-11 41v399h-343v-416q0 -17 -9 -27t-24 -10q-14 0 -23.5 9.5t-9.5 27.5v626q0 17 9 27t24 10q14 0 23.5 -9.5t9.5 -27.5v-152h343v152q0 17 9 27t24 10q14 0 23.5 -9.5t9.5 -27.5v-167q214 0 336 -103
q103 -87 103 -205zM884 189q0 97 -104 170q-109 77 -265 77v-378h210q73 0 116 34t43 97z" />
    <glyph glyph-name="oe" unicode="&#x153;" horiz-adv-x="777" 
d="M771 136q0 -64 -42 -100t-119 -36h-190q-20 0 -28 14q-4 7 -4 18v259h-288v-259q0 -32 -30 -32t-30 32v447q0 32 30 32t30 -32v-134h288v134q0 16 9 24t22 8q29 0 29 -32v-142q117 0 210 -47q113 -57 113 -154zM707 139q0 66 -97 108q-81 35 -162 35v-228h165q58 0 80 32
q14 20 14 53z" />
    <glyph glyph-name="oe" unicode="&#x45a;" horiz-adv-x="777" 
d="M771 136q0 -64 -42 -100t-119 -36h-190q-20 0 -28 14q-4 7 -4 18v259h-288v-259q0 -32 -30 -32t-30 32v447q0 32 30 32t30 -32v-134h288v134q0 16 9 24t22 8q29 0 29 -32v-142q117 0 210 -47q113 -57 113 -154zM707 139q0 66 -97 108q-81 35 -162 35v-228h165q58 0 80 32
q14 20 14 53z" />
    <glyph glyph-name="Scaron" unicode="&#x160;" horiz-adv-x="939" 
d="M919 188q0 -80 -50 -130q-58 -58 -171 -58h-232q-30 0 -41 13t-11 41v583q-49 -11 -88 -45q-58 -50 -122 -169q-82 -151 -167 -394q-6 -15 -9 -19q-8 -10 -23 -10q-30 0 -30 32q0 18 8 42q41 135 104 264q75 154 160 250q99 112 191 112q24 0 33 -9t9 -28v-176
q193 0 316 -86.5t123 -212.5zM849 189q0 93 -104 165q-109 75 -265 75v-371h210q73 0 116 34t43 97z" />
    <glyph glyph-name="Scaron" unicode="&#x409;" horiz-adv-x="939" 
d="M919 188q0 -80 -50 -130q-58 -58 -171 -58h-232q-30 0 -41 13t-11 41v583q-49 -11 -88 -45q-58 -50 -122 -169q-82 -151 -167 -394q-6 -15 -9 -19q-8 -10 -23 -10q-30 0 -30 32q0 18 8 42q41 135 104 264q75 154 160 250q99 112 191 112q24 0 33 -9t9 -28v-176
q193 0 316 -86.5t123 -212.5zM849 189q0 93 -104 165q-109 75 -265 75v-371h210q73 0 116 34t43 97z" />
    <glyph glyph-name="scaron" unicode="&#x161;" horiz-adv-x="709" 
d="M703 136q0 -64 -42 -100t-119 -36h-190q-20 0 -28 14q-4 7 -4 18v429q-35 0 -61 -9t-55 -35q-55 -50 -104.5 -167t-57.5 -202q-3 -28 -10.5 -38t-24.5 -10q-18 0 -22.5 10.5t-4.5 27.5q0 10 2 23t4 24q21 114 78 227q69 137 150 181q24 13 52 17.5t63 4.5q26 0 38.5 -8
t12.5 -28v-142q117 0 210 -47q113 -57 113 -154zM639 139q0 65 -98 108q-80 35 -161 35v-228h165q58 0 80 32q14 20 14 53z" />
    <glyph glyph-name="scaron" unicode="&#x459;" horiz-adv-x="709" 
d="M703 136q0 -64 -42 -100t-119 -36h-190q-20 0 -28 14q-4 7 -4 18v429q-35 0 -61 -9t-55 -35q-55 -50 -104.5 -167t-57.5 -202q-3 -28 -10.5 -38t-24.5 -10q-18 0 -22.5 10.5t-4.5 27.5q0 10 2 23t4 24q21 114 78 227q69 137 150 181q24 13 52 17.5t63 4.5q26 0 38.5 -8
t12.5 -28v-142q117 0 210 -47q113 -57 113 -154zM639 139q0 65 -98 108q-80 35 -161 35v-228h165q58 0 80 32q14 20 14 53z" />
    <glyph glyph-name="Ydieresis" unicode="&#x178;" horiz-adv-x="482" 
d="M442 32q0 -32 -30 -32h-141v-132q0 -32 -30 -32t-30 32v132h-141q-30 0 -30 32v447q0 32 30 32t30 -32v-421h282v421q0 32 30 32t30 -32v-447z" />
    <glyph glyph-name="Ydieresis" unicode="&#x45f;" horiz-adv-x="482" 
d="M442 32q0 -32 -30 -32h-141v-132q0 -32 -30 -32t-30 32v132h-141q-30 0 -30 32v447q0 32 30 32t30 -32v-421h282v421q0 32 30 32t30 -32v-447z" />
    <glyph glyph-name="florin" unicode="&#x192;" horiz-adv-x="300" 
d="M289 697q0 -14 -13 -27l-95 -100q-12 -12 -24 -12q-24 0 -24 22q0 9 5 18q1 2 6 8l85 105q12 16 30 16q14 0 22 -8t8 -22zM319 484q0 -27 -28 -27h-191v-425q0 -32 -30 -32t-30 32v447q0 32 30 32h221q28 0 28 -27z" />
    <glyph glyph-name="florin" unicode="&#x453;" horiz-adv-x="300" 
d="M289 697q0 -14 -13 -27l-95 -100q-12 -12 -24 -12q-24 0 -24 22q0 9 5 18q1 2 6 8l85 105q12 16 30 16q14 0 22 -8t8 -22zM319 484q0 -27 -28 -27h-191v-425q0 -32 -30 -32t-30 32v447q0 32 30 32h221q28 0 28 -27z" />
    <glyph glyph-name="circumflex" unicode="&#x2c6;" horiz-adv-x="318" 
d="M318 576q0 -24 -27 -24q-6 0 -11.5 4t-9.5 7l-111 95l-111 -95q-7 -6 -11 -8.5t-11 -2.5q-26 0 -26 24q0 12 10 22l114 108q16 14 35 14q18 0 34 -14l115 -108q10 -10 10 -22z" />
    <glyph glyph-name="tilde" unicode="&#x2dc;" horiz-adv-x="287" 
d="M287 627q0 -21 -19 -42q-24 -26 -58 -26q-29 0 -54 13l-29 15q-14 8 -23 11t-21 3q-19 0 -38 -23q-10 -13 -22 -13q-23 0 -23 25q0 27 23 49t54 22q13 0 25 -3.5t24 -9.5l26 -12q14 -7 27 -12t24 -5q15 0 23 6.5t14 14.5t10 11.5t13 3.5q24 0 24 -28z" />
    <glyph glyph-name="endash" unicode="&#x2013;" horiz-adv-x="558" 
d="M498 324q0 -9 -5 -16q-9 -13 -30 -13h-368q-16 0 -25.5 7.5t-9.5 21.5q0 9 5 16q9 13 30 13h368q16 0 25.5 -7.5t9.5 -21.5z" />
    <glyph glyph-name="emdash" unicode="&#x2014;" horiz-adv-x="858" 
d="M738 324q0 -9 -5 -16q-9 -13 -30 -13h-548q-16 0 -25.5 7.5t-9.5 21.5q0 9 5 16q9 13 30 13h548q16 0 25.5 -7.5t9.5 -21.5z" />
    <glyph glyph-name="quoteleft" unicode="&#x2018;" horiz-adv-x="204" 
d="M174 782q0 -6 -4 -18l-66 -178q-6 -15 -14.5 -21.5t-19.5 -6.5q-14 0 -22 9t-8 20q0 6 6 22l78 181l5 10q7 9 21 9q24 0 24 -27z" />
    <glyph glyph-name="quoteright" unicode="&#x2019;" horiz-adv-x="204" 
d="M164 780q0 -6 -6 -22l-78 -181l-5 -10q-7 -9 -21 -9q-24 0 -24 27q0 6 4 18l66 178q6 15 14.5 21.5t19.5 6.5q14 0 22 -9t8 -20z" />
    <glyph glyph-name="quotesinglbase" unicode="&#x201a;" horiz-adv-x="204" 
d="M164 100q0 -6 -6 -22l-78 -181l-5 -10q-7 -9 -21 -9q-24 0 -24 27q0 6 4 18l66 178q6 15 14.5 21.5t19.5 6.5q14 0 22 -9t8 -20z" />
    <glyph glyph-name="quotedblleft" unicode="&#x201c;" horiz-adv-x="334" 
d="M304 782q0 -6 -4 -18l-66 -178q-6 -15 -14.5 -21.5t-19.5 -6.5q-14 0 -22 9t-8 20q0 6 6 22l78 181l5 10q7 9 21 9q24 0 24 -27zM164 782q0 -6 -4 -18l-66 -178q-6 -15 -14.5 -21.5t-19.5 -6.5q-14 0 -22 9t-8 20q0 6 6 22l78 181l5 10q7 9 21 9q24 0 24 -27z" />
    <glyph glyph-name="quotedblright" unicode="&#x201d;" horiz-adv-x="354" 
d="M314 780q0 -6 -6 -22l-78 -181l-5 -10q-7 -9 -21 -9q-24 0 -24 27q0 6 4 18l66 178q6 15 14.5 21.5t19.5 6.5q14 0 22 -9t8 -20zM174 780q0 -6 -6 -22l-78 -181l-5 -10q-7 -9 -21 -9q-24 0 -24 27q0 6 4 18l66 178q6 15 14.5 21.5t19.5 6.5q14 0 22 -9t8 -20z" />
    <glyph glyph-name="quotedblbase" unicode="&#x201e;" horiz-adv-x="344" 
d="M304 100q0 -6 -6 -22l-78 -181l-5 -10q-7 -9 -21 -9q-24 0 -24 27q0 6 4 18l66 178q6 15 14.5 21.5t19.5 6.5q14 0 22 -9t8 -20zM164 100q0 -6 -6 -22l-78 -181l-5 -10q-7 -9 -21 -9q-24 0 -24 27q0 6 4 18l66 178q6 15 14.5 21.5t19.5 6.5q14 0 22 -9t8 -20z" />
    <glyph glyph-name="dagger" unicode="&#x2020;" horiz-adv-x="374" 
d="M334 479q0 -19 -9 -24t-28 -5l-83 3q4 -271 4 -362v-19q0 -32 -4 -45q-7 -21 -27 -21q-23 0 -27 23.5t-4 42.5v19q0 33 2 142t2 220l-83 -3q-17 0 -27 5t-10 24q0 15 9 23t33 8l78 -3q-6 63 -6 100q0 47 8.5 66.5t24.5 19.5t24.5 -19.5t8.5 -68.5q0 -36 -6 -98l78 3
q19 0 30.5 -5.5t11.5 -25.5z" />
    <glyph glyph-name="daggerdbl" unicode="&#x2021;" horiz-adv-x="374" 
d="M334 319q0 -19 -9 -24t-28 -5l-80 3l1 -202v-19q0 -32 -4 -45q-7 -21 -27 -21q-23 0 -27 23.5t-4 42.5v19l1 202l-80 -3q-17 0 -27 5t-10 24q0 15 9 23t33 8q27 0 44.5 -1t31.5 -2l2 106l-83 -3q-17 0 -27 5t-10 24q0 15 9 23t33 8l78 -3q-6 63 -6 100q0 47 8.5 66.5
t24.5 19.5t24.5 -19.5t8.5 -68.5q0 -36 -6 -98l78 3q19 0 30.5 -5.5t11.5 -25.5q0 -19 -9 -24t-28 -5l-83 3l2 -106q5 0 37 1.5t39 1.5q19 0 30.5 -5.5t11.5 -25.5z" />
    <glyph glyph-name="bullet" unicode="&#x2022;" horiz-adv-x="440" 
d="M320 339q0 -37 -24 -66q-29 -35 -76 -35t-73.5 32t-26.5 69q0 40 29 70t71 30q43 0 71.5 -29.5t28.5 -70.5z" />
    <glyph glyph-name="ellipsis" unicode="&#x2026;" horiz-adv-x="622" 
d="M582 49q0 -18 -6 -31q-11 -22 -35 -22q-25 0 -35 21q-6 13 -6 32q0 25 10 38.5t31 13.5q15 0 25 -8q16 -13 16 -44zM352 49q0 -18 -6 -31q-11 -22 -35 -22q-25 0 -35 21q-6 13 -6 32q0 25 10 38.5t31 13.5q15 0 25 -8q16 -13 16 -44zM122 49q0 -18 -6 -31
q-11 -22 -35 -22q-25 0 -35 21q-6 13 -6 32q0 25 10 38.5t31 13.5q15 0 25 -8q16 -13 16 -44z" />
    <glyph glyph-name="perthousand" unicode="&#x2030;" horiz-adv-x="1018" 
d="M978 156q0 -72 -40.5 -117.5t-105.5 -45.5q-60 0 -100 49t-40 125q0 66 41.5 108.5t102.5 42.5q57 0 96 -39q46 -45 46 -123zM326 538q0 -72 -40.5 -117.5t-105.5 -45.5q-60 0 -100 49t-40 125q0 66 41.5 108.5t102.5 42.5q57 0 96 -39q46 -45 46 -123zM586 643
l-452 -630q-10 -14 -23 -14q-24 0 -24 23q0 12 12 29l452 630q10 14 23 14q24 0 24 -23q0 -12 -12 -29zM642 156q0 -72 -40.5 -117.5t-105.5 -45.5q-60 0 -100 49t-40 125q0 66 41.5 108.5t102.5 42.5q57 0 96 -39q46 -45 46 -123zM924 156q0 36 -15 62q-23 39 -74 39
q-41 0 -64.5 -26.5t-23.5 -70.5q0 -43 18 -71q22 -35 66 -35t68.5 30.5t24.5 71.5zM272 538q0 36 -15 62q-23 39 -74 39q-48 0 -72 -37q-17 -26 -17 -60q0 -35 14 -62q22 -44 71 -44q44 0 68.5 30.5t24.5 71.5zM588 156q0 36 -15 62q-23 39 -74 39q-41 0 -64.5 -26.5
t-23.5 -70.5q0 -43 18 -71q22 -35 66 -35t68.5 30.5t24.5 71.5z" />
    <glyph glyph-name="guilsinglleft" unicode="&#x2039;" horiz-adv-x="217" 
d="M177 464q0 -8 -6 -24l-48 -120q-4 -8 -4 -14q0 -5 4 -14l48 -120q6 -15 6 -26q0 -25 -24 -25q-8 0 -13.5 3.5t-14.5 19.5l-77 134q-8 14 -8 28t8 28l77 134q8 14 10 16q6 7 18 7q24 0 24 -27z" />
    <glyph glyph-name="guilsinglright" unicode="&#x203a;" horiz-adv-x="217" 
d="M177 306q0 -14 -8 -28l-77 -134q-8 -14 -10 -16q-6 -7 -18 -7q-24 0 -24 27q0 8 6 24l48 120q4 8 4 14q0 5 -4 14l-48 120q-6 15 -6 26q0 25 24 25q8 0 13.5 -3.5t14.5 -19.5l77 -134q8 -14 8 -28z" />
    <glyph glyph-name="trademark" unicode="&#x2122;" horiz-adv-x="581" 
d="M561 395q0 -21 -4 -30t-17 -9t-17.5 8.5t-4.5 17.5v18q0 53 -4 101t-17 124q-32 -75 -57 -102q-15 -17 -29 -17q-23 0 -55 58q-9 17 -31 61q-14 -73 -17.5 -125.5t-3.5 -117.5q0 -11 -1 -14q-5 -12 -21 -12q-12 0 -16 7.5t-4 16.5v19q0 79 7.5 143.5t23.5 129.5
q3 13 8 20.5t18 7.5q17 0 25 -18q19 -42 28 -61q16 -33 41 -67q19 29 30 51q20 46 35 77q8 18 25 18q13 0 18 -6.5t9 -21.5q11 -40 21 -132t10 -145zM265 680q0 -8 -6.5 -13.5t-16.5 -5.5h-78v-282q0 -14 -7 -18.5t-15 -4.5t-14.5 5t-6.5 18v282h-78q-13 0 -18 6.5t-5 12.5
q0 7 5 13.5t18 6.5h199q12 0 17.5 -6.5t5.5 -13.5z" />
    <glyph glyph-name="periodcentered" unicode="&#x2219;" horiz-adv-x="240" 
d="M160 286q0 -18 -11.5 -29.5t-28.5 -11.5q-18 0 -29 11t-11 30q0 18 11 29t29 11t29 -11t11 -29z" />
    </font>
</defs>
</svg>
